<?xml version="1.0" encoding="UTF-8" standalone="no"?>
<!-- Created with Inkscape (http://www.inkscape.org/) -->

<svg
   width="210mm"
   height="297mm"
   viewBox="0 0 210 297"
   version="1.1"
   id="svg1"
   inkscape:version="1.4 (86a8ad7, 2024-10-11)"
   sodipodi:docname="Logo.svg"
   xmlns:inkscape="http://www.inkscape.org/namespaces/inkscape"
   xmlns:sodipodi="http://sodipodi.sourceforge.net/DTD/sodipodi-0.dtd"
   xmlns="http://www.w3.org/2000/svg"
   xmlns:svg="http://www.w3.org/2000/svg">
  <sodipodi:namedview
     id="namedview1"
     pagecolor="#ffffff"
     bordercolor="#000000"
     borderopacity="0.25"
     inkscape:showpageshadow="2"
     inkscape:pageopacity="0.0"
     inkscape:pagecheckerboard="0"
     inkscape:deskcolor="#d1d1d1"
     inkscape:document-units="mm"
     inkscape:zoom="0.68862935"
     inkscape:cx="396.43968"
     inkscape:cy="569.9728"
     inkscape:window-width="1920"
     inkscape:window-height="991"
     inkscape:window-x="-9"
     inkscape:window-y="-9"
     inkscape:window-maximized="1"
     inkscape:current-layer="layer1" />
  <defs
     id="defs1" />
  <g
     inkscape:label="Layer 1"
     inkscape:groupmode="layer"
     id="layer1">
    <g
       id="g25"
       transform="matrix(0.84018986,0,0,0.79326407,-1.1386689,43.372367)">
      <ellipse
         style="fill:#000080;stroke-width:0.331758"
         id="path1"
         cx="128.7128"
         cy="139.08665"
         rx="121.41267"
         ry="111.42302" />
      <ellipse
         style="fill:#c8ab37;stroke-width:0.381586"
         id="path2"
         cx="127.75226"
         cy="191.34024"
         rx="99.704399"
         ry="59.937904" />
      <path
         style="fill:#ffffff;stroke-width:0.264583"
         id="path3"
         d="m 61.704788,137.44757 c 0.563483,2.53091 0.820394,5.11748 1.163577,7.68438 0.477935,3.26104 1.20107,6.47555 2.009081,9.66822 1.062652,3.85055 2.135773,7.69572 3.251769,11.53133 1.097704,3.89943 1.794172,7.89936 2.398792,11.90056 0.475568,2.92263 0.824786,5.86279 1.151925,8.80496 0.368138,2.91953 0.653793,5.84937 0.870301,8.78388 0.179824,2.55436 0.139785,5.11989 0.456962,7.66333 0.166145,1.44379 0.41918,2.85504 0.867929,4.23767 0.386519,1.18248 0.676375,2.38679 1.079069,3.56476 0.540059,2.28349 1.151964,4.54935 1.707083,6.82949 0.337706,1.45064 0.864659,2.84602 1.323764,4.26063 0.376274,0.9348 0.726096,1.87887 1.084804,2.82015 0.234741,0.5969 0.48169,1.18978 0.693151,1.79544 0,0 3.578079,1.68286 3.578079,1.68286 v 0 c -0.190841,-0.62314 -0.452564,-1.21902 -0.688036,-1.82593 -0.408056,-0.91403 -0.671713,-1.89204 -1.106344,-2.79794 -0.473155,-1.42303 -1.035042,-2.81694 -1.412677,-4.26936 -0.557977,-2.27503 -1.199356,-4.52831 -1.637448,-6.83164 -0.383646,-1.18279 -0.713356,-2.37439 -1.074102,-3.56314 -0.471517,-1.36391 -0.751822,-2.75154 -0.925751,-4.18466 -0.383175,-2.54471 -0.381132,-5.11962 -0.554739,-7.6832 -0.193537,-2.9307 -0.4479,-5.85814 -0.813072,-8.77286 -0.329978,-2.96589 -0.73097,-5.9225 -1.238091,-8.86383 -0.601853,-4.01128 -1.271942,-8.02379 -2.358218,-11.93691 -1.118225,-3.83205 -2.209689,-7.66799 -3.260829,-11.51886 -0.77371,-3.18077 -1.484307,-6.37487 -1.987679,-9.6115 -0.34313,-2.55267 -0.610563,-5.11548 -1.013323,-7.65958 z" />
      <path
         style="fill:#666666;stroke-width:0.264583"
         id="path4"
         d="m 85.633887,223.60468 c -2.09523,0.19656 -4.199647,0.276 -6.302404,0.34191 -1.154628,-0.0591 -2.279796,0.13138 -3.414154,0.301 -1.1351,0.3464 -2.206231,0.89401 -3.233484,1.48207 -1.030589,0.61248 -1.730004,1.45865 -2.075973,2.59645 -0.31918,2.36174 2.028388,2.49105 4.079597,3.63307 0.816102,0.1349 1.646208,0.13064 2.470869,0.132 0.808268,0.0578 1.590443,-0.15152 2.383989,-0.2671 0.816554,-0.0386 1.609402,-0.20117 2.414399,-0.32889 0.873459,-0.0886 1.734823,-0.16547 2.571195,-0.44542 0.68368,-0.37074 1.414031,-0.76598 1.957207,-1.33347 0.441182,-0.41789 0.771449,-0.9545 1.024922,-1.50436 0.174212,-0.48894 0.418462,-1.23812 -0.16587,-1.57472 -1.249341,-0.71967 -2.529782,-1.38396 -3.794675,-2.07593 -1.063353,-0.11471 -2.087325,-0.23489 -3.109267,-0.56575 -1.166633,-0.41986 -2.396686,-0.59306 -3.625048,-0.70842 -1.005713,0.0109 -2.009209,0.31724 -2.67625,1.0902 -0.499129,0.89005 -0.639988,1.85283 -0.265779,2.80516 1.433494,1.78735 3.77926,2.79329 6.012325,3.20403 1.087718,0.26619 1.848178,-0.0243 2.841509,-0.41667 0.703495,-0.34895 1.653751,-0.7915 1.75097,-1.65834 -1.259449,-2.35381 -4.037537,-2.35715 -6.239597,-2.40015 -0.971916,0.11693 -1.970919,0.33959 -2.890079,0.68749 -0.674113,0.33942 -1.200607,0.85189 -1.523724,1.53068 -0.148614,0.38479 -0.242197,1.02395 0.201758,1.28543 3.67657,2.16538 2.372397,2.05409 4.29878,2.10062 1.194078,0.0331 2.351239,-0.19222 3.484658,-0.54374 0.891209,-0.21141 1.612596,-0.7965 2.31707,-1.35266 0.588727,-0.57145 1.363525,-1.18732 1.26302,-2.08241 -1.772952,-2.66336 -3.452749,-2.35886 -5.669087,-2.1532 -0.934897,0.0858 -1.873223,0.1187 -2.81151,0.136 -0.913063,0.12081 -1.826167,0.24389 -2.679229,0.60409 -0.822539,0.56935 -1.250513,1.21275 -0.982154,2.22053 1.439029,1.85639 3.919561,2.77492 6.196131,3.18355 0.892297,0.16097 1.789851,-0.0525 2.682063,-0.12374 1.086787,-0.0662 2.167943,-0.0463 3.243059,-0.22857 0.681646,-0.22365 1.300112,-0.42037 1.72136,-1.02639 0.335537,-0.47411 0.599456,-1.00808 0.818854,-1.54625 0.326652,-0.5264 0.490336,-1.00641 0.124423,-1.55046 -1.524299,-1.48087 -3.351289,-2.44597 -5.392425,-2.62339 -0.889241,-0.0842 -1.797503,-0.0104 -2.650416,0.25856 -2.568983,0.68524 1.208646,2.72315 3.053125,2.74903 0.861999,0.0603 1.706451,0.0386 2.557552,-0.10064 0.722905,-0.12574 1.395339,-0.413 2.122046,-0.53618 1.423786,0.13141 3.554037,1.63435 -2.407693,-1.59861 -0.06976,-0.0378 0.128339,0.096 0.178562,0.15745 0.05445,0.0666 0.08775,0.148 0.131623,0.22201 0.224829,0.61254 0.243173,1.2662 0.13108,1.9022 -0.0643,0.65428 -0.37986,0.90781 -0.986634,1.04295 -0.671761,0.16545 -1.293916,0.0164 -1.949024,-0.11959 -0.702458,10e-4 -1.236724,-0.39786 -1.861259,-0.64562 -0.548217,-0.41463 -1.193242,-0.55582 -1.859804,-0.63957 -0.746382,-0.0693 -1.497026,-0.0645 -2.245858,-0.0649 -1.218816,-0.30115 -3.852555,-1.89521 2.614782,1.57607 0.07326,0.0393 -0.127484,-0.10911 -0.176482,-0.17629 -0.128667,-0.17642 -0.149294,-0.31921 -0.209563,-0.52619 -0.08225,-0.78913 -0.186061,-1.58208 -0.233974,-2.37471 0.02945,-0.73298 0.706411,-0.709 1.287095,-0.76586 0.810447,-0.0506 1.623179,-0.0336 2.434629,-0.0263 0.778211,0.008 1.556454,0.0109 2.334697,0.0126 0.414761,0.12619 0.881457,0.12384 1.271249,0.32859 0.193034,0.1014 0.362725,0.24237 0.549552,0.3548 -6.059685,-3.34821 -3.053519,-1.9815 -1.985658,-0.88727 0.400942,0.37976 0.705014,0.83017 1.011537,1.28437 0.226089,0.3382 0.309578,0.72667 0.381558,1.11944 0,0 3.554648,1.7434 3.554648,1.7434 v 0 c -0.05458,-0.43168 -0.113813,-0.86604 -0.307438,-1.26201 -0.283252,-0.49086 -0.599718,-0.94717 -0.975302,-1.36965 -0.274317,-0.2613 -0.144782,-0.11873 -0.386101,-0.42996 -1.190387,-1.22027 -3.934521,-0.59067 -4.370874,-2.69051 -0.598429,-0.33121 -1.256536,-0.49101 -1.940854,-0.51572 -0.777412,-0.002 -1.554816,-0.007 -2.332204,-0.0131 -0.822349,-0.005 -1.647828,-0.0191 -2.466615,0.0707 -0.788387,0.12906 -1.498224,0.36135 -1.588656,1.26761 0.02214,0.81282 0.18574,1.61758 0.194725,2.43347 0.344416,2.0696 2.507922,3.00934 4.536919,3.1716 0.738275,0.005 1.480825,0.004 2.21221,0.118 0.648708,0.132 1.226251,0.39052 1.801209,0.71588 0.619268,0.28647 1.223291,0.52572 1.913311,0.58195 0.690806,0.13327 1.377675,0.16211 2.063327,-0.0363 0.677957,-0.24785 1.121558,-0.66515 1.209603,-1.41409 0.141319,-0.70356 0.140777,-1.40571 -0.02318,-2.1092 -0.556006,-1.83539 -2.90802,-2.86931 -4.750967,-2.7024 -0.709105,0.15325 -1.381964,0.43772 -2.104242,0.52773 -0.83326,0.11103 -1.672717,0.0942 -2.508784,0.009 -1.584402,-0.34901 0.364474,0.0473 2.938904,1.88522 0.07999,0.0571 -0.145923,0.13376 -0.203314,0.21355 -0.03667,0.051 0.532167,-0.27451 0.650801,-0.24673 0.839446,-0.19915 1.698231,-0.2599 2.555386,-0.13694 0.391271,0.0601 0.77589,0.11921 1.14459,0.27181 0.106783,0.0442 0.40972,0.21343 0.310734,0.15378 -3.311771,-1.99574 -4.003913,-2.60931 -2.901902,-1.66433 0.57535,0.28755 0.372129,0.64588 0.08839,1.12152 -0.201874,0.51184 -0.457118,1.01504 -0.773718,1.46416 -0.356704,0.48628 -0.982187,0.60836 -1.534867,0.77271 -1.066527,0.15941 -2.144321,0.12214 -3.217828,0.20916 -0.871656,0.0721 -1.746308,0.24629 -2.614141,0.0395 -0.450935,-0.096 -0.649955,-0.12743 -1.094439,-0.26764 -0.185692,-0.0586 -0.71325,-0.30256 -0.550254,-0.19605 5.04729,3.29826 3.344506,1.9628 2.173666,1.31068 -0.468233,-0.77278 -0.0054,-1.26022 0.674042,-1.6767 0.835112,-0.29784 1.715738,-0.42965 2.59823,-0.4925 0.941133,-0.0269 1.881502,-0.075 2.81922,-0.16172 0.147949,-0.0123 0.769159,-0.0665 0.936995,-0.0721 0.135374,-0.005 0.271428,-0.01 0.406347,0.002 0.111099,0.01 0.422278,0.12383 0.328562,0.0633 -2.77006,-1.78781 -4.260688,-2.12183 -2.824678,-1.77493 0.05276,0.0309 0.135313,0.0361 0.158292,0.0927 0.159401,0.3931 -0.900406,1.30448 -1.139632,1.53659 -0.684887,0.52155 -1.384644,1.03426 -2.238774,1.23281 -1.101519,0.33065 -2.238687,0.51124 -3.392318,0.41352 -1.639581,-0.33404 -0.422781,-0.14011 2.545196,1.71013 0.151405,0.0944 -0.366662,-0.12565 -0.456171,-0.28 -0.12288,-0.21188 -0.04437,-0.29137 0.01998,-0.51518 0.268505,-0.59019 0.753581,-1.01571 1.35082,-1.26819 0.900057,-0.29434 1.837227,-0.55947 2.7877,-0.58441 0.594249,0.0163 1.19397,0.0223 1.784226,0.10196 0.161912,0.0219 0.617373,0.18047 0.481986,0.089 -2.792227,-1.88601 -4.263252,-1.77536 -2.780718,-1.83669 0.499525,0.22735 -1.233395,1.11784 -1.439148,1.19177 -0.910241,0.34406 -1.743625,0.50115 -2.708616,0.23499 -0.409422,-0.0934 -0.615501,-0.12777 -1.014109,-0.27032 -0.16619,-0.0594 -0.63936,-0.29516 -0.48942,-0.20206 0.965387,0.59949 1.969076,1.13534 2.940878,1.72438 0.127566,0.0773 -0.280363,-0.10774 -0.406107,-0.18799 -0.114853,-0.0733 -0.205689,-0.17873 -0.308536,-0.2681 -0.54329,-0.79736 -0.358179,-1.55946 0.04821,-2.38013 0.629925,-0.66259 1.567751,-0.84425 2.454841,-0.79302 1.215152,0.13251 2.41672,0.35115 3.572105,0.76275 1.030327,0.28814 2.082956,0.34227 3.117506,0.59585 -1.001942,-0.5989 -2.014164,-1.18093 -3.005828,-1.79669 -0.16502,-0.10247 0.423601,0.0849 0.52659,0.24957 0.138226,0.22105 -0.09109,0.60593 -0.126841,0.82014 -0.229241,0.5119 -0.542465,0.99931 -0.950738,1.38594 -0.516896,0.5032 -1.184773,0.88905 -1.840807,1.17495 -0.832763,0.22574 -1.685449,0.2861 -2.537703,0.40398 -0.804196,0.13242 -1.607813,0.23918 -2.41857,0.32178 -0.778407,0.12448 -1.552236,0.27615 -2.345857,0.21765 -0.801536,-0.009 -1.623941,0.002 -2.394513,-0.24761 1.028314,0.6116 2.062194,1.21393 3.084944,1.83479 0.07619,0.0463 -0.168688,-0.0619 -0.2437,-0.11002 -0.358397,-0.22998 -0.34925,-0.64946 -0.335494,-1.02811 0.280799,-1.05501 0.933725,-1.80442 1.880909,-2.35621 1.008243,-0.55587 2.068507,-1.07683 3.19531,-1.3389 1.103987,-0.18163 2.206093,-0.32308 3.329437,-0.30433 2.117876,-0.0917 4.234466,-0.21583 6.353027,-0.28726 z" />
      <path
         style="fill:#ffff00;stroke-width:0.264583"
         id="path5"
         d="m 18.229439,148.48067 c 2.123393,-2.20033 4.401314,-4.24938 6.75983,-6.19355 4.286607,-3.32209 8.682505,-6.49951 13.146568,-9.57801 3.102642,-2.07169 6.322116,-3.97737 9.706076,-5.55178 2.808004,-1.107 5.694984,-2.05654 8.610756,-2.84305 1.799341,-0.54956 3.668016,-0.77814 5.521764,-1.05733 1.508625,-0.2278 3.034638,-0.27427 4.557395,-0.30417 2.072976,-0.0298 4.14629,-0.0271 6.219431,-0.0235 2.002136,0.0107 4.004312,0.007 6.006467,0.005 2.017702,-0.0623 4.028011,0.11187 6.038929,0.24804 1.8298,0.0499 3.643741,0.25545 5.45623,0.49552 2.312673,0.47314 4.623744,0.9475 6.910152,1.53584 1.223481,0.34578 2.488774,0.51383 3.720723,0.82142 1.01994,0.25465 2.02002,0.60418 3.03031,0.8948 1.5366,0.42733 3.04183,0.90684 4.48121,1.59565 1.16381,0.56906 4.20229,2.27645 -0.90414,-0.5953 -0.27052,-0.15213 0.5353,0.31431 0.79996,0.47644 0.94793,0.58069 0.9648,0.60954 1.94653,1.27345 3.00549,2.24351 6.07867,4.45596 8.68941,7.16254 0.0402,0.25938 0.26531,0.55916 0.12059,0.77813 -0.31836,0.4817 -2.81801,1.07092 -2.88077,1.08561 -2.17511,0.50896 -4.40665,0.7173 -6.62393,0.93689 -3.21466,0.4135 -6.41721,0.11975 -9.615579,-0.25032 -2.671199,-0.29735 -5.342499,-0.6009 -7.996463,-1.0281 -2.166374,-0.26095 -4.309414,-0.66889 -6.464829,-1.00134 -2.141823,-0.18538 -4.295396,-0.17251 -6.443546,-0.18136 -2.15252,-0.008 -4.305067,-0.0101 -6.457601,-0.008 -2.591723,0.0506 -5.179279,-0.22653 -7.753852,-0.5011 -2.167202,-0.22276 -4.329295,-0.59736 -6.512454,-0.54786 -2.011982,0.004 -3.983133,0.25905 -5.924503,0.77201 -1.918393,0.6144 -3.846075,1.19586 -5.778497,1.76364 -2.040265,0.71389 -4.019682,1.57726 -5.999236,2.44164 -2.025118,0.87346 -4.003292,1.84525 -6.033932,2.70556 -1.501489,0.63314 -2.999927,1.27896 -4.510407,1.8905 -1.12468,0.58041 -2.299407,1.06313 -3.424934,1.63847 -0.833863,0.54268 -1.61519,1.18342 -2.332968,1.87236 -1.011192,0.9194 -2.018203,1.83941 -2.937166,2.85184 -0.866922,0.95337 -1.748598,1.88903 -2.618905,2.83909 -0.771475,0.68876 -1.374967,1.52959 -2.070401,2.28275 -0.725948,0.7674 -1.257688,1.68719 -1.924469,2.50093 -0.30207,0.31692 -0.482282,0.72215 -0.767811,1.05136 -0.05649,0.0651 -0.110555,0.14038 -0.188634,0.17693 -0.02632,0.0123 -0.09089,-0.0711 -0.0648,-0.0583 1.12688,0.55294 2.246727,1.1201 3.37009,1.68015 -0.121391,-0.996 0.0974,-1.99224 0.21532,-2.9795 0.118084,-0.97537 0.170327,-1.95642 0.196552,-2.93798 0.01191,-0.80182 -0.01812,-1.59746 0.107069,-2.39131 0.235669,-0.74037 0.446997,-1.48028 0.564533,-2.24925 0.108095,-0.9381 0.09783,-1.88571 0.10532,-2.82878 0.02328,-0.55738 0.284956,-1.37888 0.974895,-1.3016 0,0 -3.249566,-2.27537 -3.249566,-2.27537 v 0 c -0.777806,0.29851 -1.19303,0.95818 -1.235693,1.78612 -0.002,0.92513 0.0026,1.85309 -0.09174,2.77445 -0.1037,0.76935 -0.304217,1.51018 -0.560084,2.24303 -0.137413,0.81135 -0.140678,1.62031 -0.129201,2.44232 -0.01647,0.97302 -0.05216,1.94637 -0.160886,2.91415 -0.118507,1.02068 -0.346096,2.03615 -0.297291,3.06757 4.025329,2.66578 2.845178,3.20139 4.590728,0.90695 0.648875,-0.81908 1.194297,-1.72053 1.920822,-2.47783 0.677439,-0.76995 1.298634,-1.58793 2.054114,-2.29145 0.859065,-0.96089 1.749891,-1.88715 2.617123,-2.84058 0.907715,-1.00993 1.906821,-1.92331 2.924134,-2.82189 0.708329,-0.64959 1.46191,-1.27079 2.283753,-1.77081 1.117915,-0.5613 2.250665,-1.09557 3.381595,-1.63059 1.498549,-0.62981 3.000724,-1.25257 4.485957,-1.91313 2.020107,-0.87533 3.995121,-1.84821 6.017112,-2.71987 1.972109,-0.86025 3.956653,-1.68937 5.99314,-2.38741 1.926643,-0.56899 3.845031,-1.16338 5.764557,-1.75599 1.927307,-0.47424 3.888277,-0.69457 5.87543,-0.69016 2.154169,0.0298 4.291571,0.31563 6.432079,0.54058 2.602738,0.26553 5.214014,0.56919 7.833857,0.50964 2.143461,-0.004 4.286925,-0.0159 6.430394,-0.008 2.154033,0.0178 4.317468,0.006 6.459423,0.26271 2.13546,0.31816 4.265163,0.67315 6.405269,0.96004 2.647921,0.4148 5.310872,0.71602 7.976492,0.99198 3.2037,0.35672 6.41284,0.63702 9.62455,0.1546 2.22454,-0.2528 4.47853,-0.47771 6.66243,-0.99153 0.74351,-0.17494 2.73168,-0.59021 3.26815,-1.47706 0.17941,-0.29659 -0.0543,-0.69114 -0.0814,-1.03671 -2.59097,-2.7245 -5.66699,-4.93097 -8.63333,-7.22452 -2.68781,-1.87836 -5.53795,-3.53262 -8.47533,-4.98931 -1.45239,-0.65747 -2.97306,-1.10783 -4.5063,-1.53856 -2.222949,-0.64099 -4.456078,-1.20468 -6.721474,-1.6786 -2.306479,-0.58331 -4.633656,-1.0814 -6.971107,-1.5245 -1.819968,-0.23886 -3.644977,-0.42153 -5.480656,-0.48145 -2.010629,-0.12388 -4.020793,-0.27502 -6.037215,-0.21588 -2.001086,-0.003 -4.002185,-0.009 -6.003268,-0.003 -2.083957,2.7e-4 -4.167997,-0.0101 -6.251888,0.0105 -1.534136,0.0349 -3.070727,0.0937 -4.587573,0.34613 -1.852276,0.29486 -3.717578,0.54417 -5.510128,1.12171 -2.910734,0.84413 -5.797327,1.81837 -8.621146,2.91362 -3.364338,1.60578 -6.52831,3.58735 -9.599594,5.69558 -4.457787,3.12792 -8.895005,6.28997 -13.266179,9.53732 -2.392936,1.95441 -4.66944,4.04456 -6.913683,6.16705 z" />
      <path
         style="fill:#ffff00;stroke-width:1.45216"
         d="m 67.991048,581.59008 c 0.465994,-3.19475 1.289566,-9.23967 1.830159,-13.43315 0.914094,-7.09079 1.694353,-8.29566 11.146482,-17.21232 20.468431,-19.30888 72.417291,-55.90047 94.743671,-66.73528 35.31051,-17.13589 79.2006,-22.68264 143.04772,-18.07809 26.24072,1.89243 75.02511,12.78846 89.29788,19.94474 5.51988,2.76763 31.66097,22.22455 30.89227,22.99325 -0.31588,0.31588 -6.08893,-0.0596 -12.82898,-0.83451 -18.46857,-2.12321 -67.82403,-1.72739 -88.67021,0.71112 -10.07124,1.17809 -26.40405,3.8679 -36.2951,5.97734 -17.6878,3.77223 -18.34219,3.8059 -39.76614,2.04597 -49.80495,-4.09138 -53.44073,-3.88629 -79.30546,4.47336 -13.65486,4.41334 -44.48561,17.43277 -71.71918,30.2861 -13.005999,6.1384 -16.019227,8.35747 -28.870987,21.26191 l -14.349386,14.4082 z"
         id="path6"
         transform="scale(0.26458333)" />
      <path
         style="fill:#ffff00;stroke-width:1.45216"
         d="m 356.50528,523.38104 c -13.17835,-2.01265 -32.78251,-4.11536 -43.5648,-4.67269 l -19.60416,-1.01331 17.42592,-3.2294 c 29.49305,-5.4657 47.47185,-6.66116 85.44862,-5.68173 19.29436,0.49761 37.43226,1.29581 40.30645,1.77379 6.40032,1.06438 14.3036,6.98031 12.20013,9.13231 -3.71178,3.7974 -19.51119,6.26348 -43.5648,6.79988 -20.96782,0.46759 -28.29624,-7.4e-4 -48.64736,-3.10885 z"
         id="path7"
         transform="scale(0.26458333)" />
      <path
         style="fill:#ffff00;stroke-width:1.45216"
         d=""
         id="path8"
         transform="scale(0.26458333)" />
      <path
         style="fill:#ffff00;stroke-width:1.45216"
         d=""
         id="path9"
         transform="scale(0.26458333)" />
      <path
         style="fill:#ffff00;stroke-width:1.45216"
         d=""
         id="path10"
         transform="scale(0.26458333)" />
      <path
         style="fill:#ffff00;stroke-width:1.45216"
         d=""
         id="path11"
         transform="scale(0.26458333)" />
      <path
         style="fill:#ffff00;stroke-width:1.45216"
         d=""
         id="path12"
         transform="scale(0.26458333)" />
      <path
         style="fill:#ffff00;stroke-width:1.45216"
         d="m 57.101946,610.93813 -5.340934,-4.66133 1.336956,-15.24768 c 0.735326,-8.38622 1.86829,-20.1075 2.517698,-26.04728 l 1.180742,-10.79959 10.810117,-9.98963 c 11.452914,-10.58363 60.033195,-46.42296 78.335555,-57.79081 16.03737,-9.96103 22.21238,-12.86829 40.31845,-18.98237 28.03378,-9.46649 33.36533,-10.11861 83.01356,-10.15379 24.41586,-0.0173 48.98192,0.64278 54.59125,1.46685 11.3475,1.66707 42.41115,8.70273 58.05274,13.14848 10.131,2.87949 27.31952,10.26564 26.28859,11.29657 -0.29841,0.29841 -5.68194,-1.09398 -11.96342,-3.09419 -15.1668,-4.82958 -46.97018,-12.15654 -61.8776,-14.25556 -15.57851,-2.19351 -94.36836,-2.03614 -107.10261,0.21393 -15.19861,2.6855 -41.70506,11.48507 -55.56753,18.44722 -21.80976,10.95352 -70.72665,45.50765 -91.909913,64.92373 l -10.248321,9.39338 -1.731999,13.00875 c -2.865702,21.52384 -3.621237,21.36894 14.604803,2.99432 12.675997,-12.77934 18.28923,-17.35513 25.04976,-20.42005 31.02209,-14.06404 61.96029,-26.93651 76.96448,-32.02263 16.50707,-5.59557 18.34478,-5.90897 34.85184,-5.94352 33.99196,-0.0711 112.44972,4.62173 133.59872,7.99107 24.60479,3.91991 68.53629,4.69682 82.69966,1.46251 10.67453,-2.4376 15.32114,-4.4889 15.32114,-6.76368 0,-2.14476 -10.91279,-12.43701 -22.18393,-20.92246 -4.61363,-3.47336 -8.06132,-6.64229 -7.66154,-7.04206 1.92051,-1.92052 41.46275,30.50887 41.46275,34.00443 0,3.1937 -8.59144,6.17226 -25.11967,8.70871 -19.18056,2.94348 -45.57217,1.92895 -79.02208,-3.03771 -24.74835,-3.67464 -84.37088,-7.06266 -127.47777,-7.24386 -16.23767,-0.0683 -18.5709,0.29504 -34.21754,5.32776 -19.70943,6.33953 -81.24995,33.15326 -88.23137,38.44318 -6.71785,5.0902 -27.62679,26.87714 -36.660478,38.1999 -4.141935,5.19147 -7.938127,9.57623 -8.435981,9.74389 -0.497855,0.16767 -3.308611,-1.79274 -6.246125,-4.35648 z"
         id="path13"
         transform="scale(0.26458333)" />
      <path
         style="fill:#ffff00;stroke-width:0.264583"
         id="path14"
         d="m 81.055892,136.47706 c 1.325517,0.27669 2.664854,0.46309 4.012078,0.59129 1.338058,0.10793 2.674355,0.12049 4.008509,-0.0225 1.069101,-0.10866 2.133499,-0.21544 3.17396,-0.49288 0.928325,-0.3011 1.886669,-0.43002 2.856039,-0.49425 1.103784,-0.0542 2.209329,-0.05 3.314113,-0.0474 1.291479,-0.002 2.582949,-0.004 3.874429,2.7e-4 1.27445,0.002 2.54891,1.8e-4 3.82337,0.002 1.45905,0.1619 2.92343,0.25236 4.38968,0.3158 1.15998,-0.0117 2.33987,0.17487 3.4935,0.0146 1.02524,-0.22502 2.08228,-0.18631 3.1146,-0.35075 0.14405,-0.0269 0.59905,-0.13496 0.78673,-0.0991 0.0587,0.0112 0.19902,0.13203 0.14677,0.103 -1.10582,-0.61435 -2.18271,-1.2821 -3.3083,-1.85942 -0.0601,-0.0308 0.0509,0.12654 0.0601,0.19342 0.0135,0.0978 0.005,0.19732 0.007,0.29599 0.0121,0.79423 -0.27249,1.48747 -0.67892,2.14986 -0.62656,0.75961 -1.34668,1.44774 -2.09875,2.08214 -0.71363,0.61518 -1.35483,1.26973 -2.25741,1.58825 -0.41061,0.12353 -0.84309,0.0975 -1.22769,-0.10027 -0.10327,-0.0531 -0.39873,-0.23802 -0.29742,-0.1813 1.03453,0.5792 2.06485,1.16589 3.09728,1.74884 -0.68757,-0.4802 -1.05011,-1.24674 -1.61397,-1.84028 -1.40083,-1.30581 -3.22563,-2.08185 -4.92377,-2.90698 -0.15013,-0.0729 -1.31455,-0.20584 -1.4399,-0.22171 -1.1986,-0.14159 -2.40308,-0.0982 -3.590619,-0.31709 -0.382886,-0.0544 -0.719627,-0.33312 -1.082567,-0.42742 -0.792546,-0.20591 -1.67936,-0.24301 -2.490229,-0.33941 -2.13814,-0.30343 -4.293184,-0.1057 -6.439828,-0.024 -2.759276,0.12244 -5.513631,0.33419 -8.273108,0.46268 -1.970262,0.0899 -3.942773,0.10355 -5.914729,0.10259 -1.711666,0.0203 -3.423383,-0.003 -5.135086,0.004 -1.336352,0.038 -2.658592,-0.19192 -3.98653,-0.30593 -1.055076,-0.0742 -2.112653,-0.0904 -3.169912,-0.0905 -1.181955,0.002 -2.363909,-0.002 -3.545861,-0.004 -1.299472,0.0609 -2.589639,-0.11715 -3.880183,-0.24056 -1.135902,-0.093 -2.275862,-0.12185 -3.415033,-0.13972 -0.849879,-0.0361 -1.6803,-0.0236 -2.516476,0.12754 -1.051047,0.26832 -2.091314,0.49548 -3.084925,0.94174 -0.87643,0.41255 -1.786956,0.74095 -2.680634,1.11038 -0.767075,0.17087 -1.399429,0.62184 -2.101435,0.94205 -0.714584,0.27942 -1.432158,0.58869 -2.109417,0.95115 -0.603644,0.34957 -1.278914,0.44777 -1.961681,0.50373 -0.847844,0.23253 -1.676871,0.50694 -2.545842,0.65996 -0.879409,0.24846 -1.712172,0.64693 -2.54399,1.02234 -1.031156,0.3783 -1.974345,0.92699 -2.875309,1.5492 -0.820182,0.51795 -1.640398,1.03358 -2.469584,1.53722 -0.736373,0.52499 -1.524347,0.97523 -2.130397,1.6547 -0.511712,0.52184 -1.06176,1.00555 -1.579694,1.52264 -0.490525,0.65876 -1.124936,1.1571 -1.714887,1.71593 -0.542822,0.45886 -1.015307,0.99137 -1.540061,1.47118 -0.582209,0.55221 -1.143163,1.12635 -1.839538,1.53501 -0.588959,0.3613 -1.124394,0.80172 -1.71957,1.1533 -0.18818,0.0834 -0.356881,0.19126 -0.573315,0.17325 -0.07242,-0.006 -0.13584,-0.0517 -0.20376,-0.0775 1.095502,0.59806 2.174885,1.22665 3.286507,1.79419 0.0617,0.0315 -0.08998,-0.10896 -0.1134,-0.17416 -0.03263,-0.0908 -0.03433,-0.18997 -0.0515,-0.28496 0.01547,-0.7785 0.284938,-1.51509 0.495438,-2.25545 0.2168,-0.7757 0.280492,-1.57854 0.317089,-2.37938 -0.02032,-0.72633 0.0035,-1.39528 0.269661,-2.07302 0.389862,-0.69732 0.8438,-1.36395 1.291404,-2.02718 0.41024,-0.5459 0.88814,-1.03737 1.529136,-1.29246 0.92526,-0.20085 1.857612,-0.30854 2.750456,-0.63785 0.857943,-0.4138 1.738939,-0.76073 2.640104,-1.07664 0.769853,-0.38983 1.629958,-0.50428 2.384158,-0.91884 0.978292,-0.53322 1.871946,-1.1539 2.635401,-1.9666 0.757259,-1.09262 1.75736,-1.97514 2.530343,-3.05558 0.975939,-1.89882 -1.760932,-2.15206 -3.551375,-2.94689 -0.127437,-0.0566 -0.263523,0.0912 -0.395931,0.13492 -0.141959,0.0468 -0.284755,0.0911 -0.427133,0.13663 -1.062355,0.30727 -2.095103,0.70772 -3.076987,1.21544 -0.775536,0.47367 -1.521087,0.9952 -2.295322,1.46682 -0.706497,0.29539 -1.317601,0.71328 -1.87362,1.23346 -0.482683,0.55284 -1.015068,1.13076 -0.932588,1.90711 3.814467,2.38088 3.060605,2.69814 6.362293,1.52373 2.091021,-0.86801 4.186624,-1.72708 6.243627,-2.67414 1.415973,-0.63502 2.747923,-1.41894 3.994544,-2.33716 0.565941,-0.43157 1.004827,-0.95703 1.388311,-1.55054 0.136142,-0.25757 0.19876,-0.64021 -0.118639,-0.81363 -3.004108,-1.64139 -2.721673,-2.17106 -4.848238,-1.84393 -1.223759,0.25138 -2.479186,0.27826 -3.707318,0.4865 -0.955918,0.26169 -1.890276,0.55282 -2.742763,1.06521 -0.197628,0.14417 -0.541557,0.3716 -0.704692,0.5729 -1.040619,1.28411 2.393167,2.80211 3.771448,2.74462 0.85222,-0.13192 1.627936,-0.50143 2.413021,-0.83622 1.022104,-0.41206 1.992022,-0.96856 2.906673,-1.58138 0.810096,-0.58962 1.47873,-1.34569 2.119902,-2.10967 0.677823,-0.74114 1.332818,-1.48351 2.154367,-2.06981 0.586928,-0.39839 1.285764,-0.56996 1.920703,-0.8651 0.314624,-0.14625 0.610886,-0.3295 0.922407,-0.48225 0.901491,-0.38706 1.793647,-0.80056 2.630297,-1.31588 0.881033,-0.60291 1.896599,-0.91031 2.874735,-1.30832 1.001231,-0.45702 2.103323,-0.51965 3.162387,-0.7462 0.857469,-0.18304 1.723051,-0.29696 2.582193,-0.47019 0.952992,-0.15842 1.910535,-0.24733 2.865382,-0.39355 1.299416,-0.20469 2.621687,-0.15209 3.923239,-0.31514 0.894479,-0.22896 1.750674,-0.57626 2.636321,-0.83299 0.840928,-0.35273 1.739342,-0.50551 2.640793,-0.59771 1.007298,-0.0692 2.017668,-0.067 3.026802,-0.0662 0.950486,0.005 1.900978,0.001 2.85147,0.003 1.157031,-0.003 2.314048,-0.003 3.471079,2e-4 0.996622,-0.0722 1.971268,0.12827 2.953647,0.25613 0.887063,0.10195 1.781596,0.1164 2.673564,0.12977 0.871583,-0.0852 1.655811,0.0863 2.482017,0.32993 1.101463,0.38927 2.253774,0.53525 3.395983,0.74681 1.106648,0.22227 2.225309,0.36458 3.351315,0.43367 0.788559,0.059 1.560867,0.24818 2.350823,0.33237 0.816957,0.0767 1.637985,0.0776 2.457686,0.0816 1.007845,-0.0607 1.99707,0.0639 2.99362,0.19118 0.81826,0.26193 1.6688,0.37657 2.4423,0.75597 1.24199,0.61497 3.51062,1.93117 -2.02714,-1.20665 -0.92491,-0.52408 0.81194,0.54647 0.9786,0.65427 1.59503,0.9996 3.23658,1.8917 4.87972,2.82626 0.14678,0.0835 0.58622,0.33546 0.43961,0.25169 -0.98045,-0.56021 -1.96075,-1.12069 -2.94113,-1.68103 12.57383,7.30855 -7.772167,-4.58223 4.64913,2.67832 0.99255,0.58018 -1.98931,-1.1532 -2.98997,-1.71928 -0.25931,-0.14671 0.50206,0.32094 0.75288,0.48172 0.75093,0.49042 1.49526,0.98844 2.26759,1.4451 1.46782,0.94542 3.00708,1.75947 4.53095,2.61815 0.1253,0.0706 0.50737,0.27102 0.38274,0.19922 -3.43457,-1.9787 -3.9873,-2.34969 -2.72276,-1.52243 1.23371,0.7118 2.46742,1.4236 3.70113,2.13541 0.10831,0.062 0.43339,0.2479 0.32491,0.18615 -0.99696,-0.56757 -1.98773,-1.14614 -2.99039,-1.70358 -0.14336,-0.0797 0.27444,0.17972 0.41152,0.26981 0.59597,0.39167 0.24908,0.16882 0.84425,0.54476 0.55892,0.33633 1.06604,0.74475 1.5858,1.13582 0.0444,-0.1051 0.1439,-0.2947 0.0845,-0.41012 -0.0332,-0.0645 -0.26109,-0.12657 -0.19798,-0.0907 4.84888,2.75662 3.76591,2.38869 2.63383,1.26459 -0.55839,-0.61612 -1.08431,-1.25413 -1.51689,-1.96485 -0.3684,-0.5821 -0.80182,-1.11758 -1.26776,-1.62353 -1.25867,-1.39001 -2.93033,-2.54604 -4.78384,-2.94484 -0.50459,-0.11028 -1.02971,-0.0171 -1.5274,-0.16667 -0.2433,-0.0731 -0.4721,-0.18785 -0.70914,-0.27922 -1.16893,-0.74878 -3.11797,-1.71678 2.52485,1.42005 0.0902,0.0501 -0.16684,-0.12157 -0.24875,-0.18435 -0.23647,-0.18126 -0.21936,-0.17371 -0.44199,-0.37342 -1.62469,-1.21273 -3.33133,-2.42789 -5.34993,-2.71908 -1.67241,-0.0829 -3.34808,-0.082 -5.02222,-0.0939 -1.095322,-0.12271 -2.229498,-0.1158 -3.263095,-0.52986 -0.13452,-0.0532 -0.274021,-0.0952 -0.403556,-0.15963 -0.228039,-0.11337 -0.429855,-0.27469 -0.656683,-0.39047 -0.31071,-0.1586 -0.632306,-0.2432 -0.937712,-0.41276 -1.370584,-0.62284 -0.53853,-0.25509 2.87034,1.66693 0.08301,0.0468 -0.161546,-0.10116 -0.241165,-0.15352 -0.27478,-0.18072 -0.524513,-0.39457 -0.788601,-0.59051 -1.238541,-0.71323 -2.477082,-1.42647 -3.715623,-2.1397 -0.117949,-0.0626 -0.469376,-0.25489 -0.353841,-0.18791 1.001882,0.58085 4.019185,2.30316 3.013099,1.72962 -12.428871,-7.08528 7.913467,4.51272 -4.526743,-2.57502 -0.745818,-0.34843 -1.559443,-0.43426 -2.370256,-0.48111 -0.771983,-0.0295 -1.544775,-0.021 -2.317134,-0.0177 -0.758177,0.0356 -1.528469,-0.0677 -2.276739,0.0724 -1.023695,0.41482 -0.441667,1.35573 0.05819,1.95463 3.267991,2.71099 7.186761,3.65719 11.174878,4.61646 3.173982,0.706 6.310511,1.56784 9.500071,2.2029 1.60029,0.23121 3.15433,0.67327 4.71949,1.06452 1.60935,0.28197 3.22995,0.54329 4.79906,1.00893 0.37216,0.11515 0.73135,0.20768 1.0808,0.38398 0.13875,0.07 0.53042,0.32398 0.3952,0.24738 -5.56121,-3.15049 -3.45888,-2.22247 -2.49259,-1.31334 0.47761,0.44357 0.87042,0.95952 1.27086,1.47083 0.35012,0.51713 0.86704,0.86364 1.31398,1.28385 0.48544,0.46011 0.89372,0.9268 1.13237,1.55647 0.18609,0.69478 -0.40499,0.71348 -0.94019,0.77682 -1.04186,0.0853 -2.08894,0.0717 -3.13342,0.0681 -1.13781,-0.0522 -2.26479,0.1336 -3.39524,0.23766 -1.12347,0.10132 -2.25188,0.12051 -3.37913,0.13222 -1.12415,0.008 -2.24837,0.006 -3.37254,0.003 -1.08027,-0.0962 -2.11849,-0.40341 -3.188756,-0.57202 -0.867545,-0.11013 -1.696567,-0.38541 -2.564752,-0.50279 -0.892778,-0.24462 -1.809861,-0.34345 -2.729886,-0.41135 -1.00747,-0.0593 -2.017398,-0.0537 -3.026214,-0.0569 -0.968417,-1.7e-4 -1.936835,0.001 -2.905255,5.3e-4 -0.880702,-0.001 -1.761402,6e-5 -2.6421,0.003 -1.05211,0.006 -2.104228,-0.001 -3.156341,2.4e-4 -1.959645,0.12934 -3.829601,-0.51881 -5.675069,-1.09453 -1.325068,-0.52177 -2.738364,-0.85892 -4.011898,-1.51055 -0.124278,-0.0636 -0.477528,-0.28935 -0.356265,-0.22017 1.081837,0.61711 2.158794,1.24274 3.238191,1.86411 -0.02305,0.0457 -0.130995,0.17085 0.01061,0.20249 0.254555,0.0569 0.521665,-0.0223 0.782367,-0.014 0.238927,0.008 1.076378,0.0915 1.295583,0.11239 1.421521,0.12447 2.846297,0.20779 4.272198,0.25997 0.895778,-0.0883 1.601589,0.32482 2.382226,0.65935 0.947359,0.3846 1.978967,0.4324 2.987609,0.49172 1.134126,0.0709 2.244518,-0.23805 3.348963,-0.45188 2.816368,-0.29867 -0.804569,-2.60967 -2.85623,-2.60717 -0.897353,-0.0678 -1.774145,0.066 -2.65839,0.19412 -0.832091,0.12424 -1.637263,0.36472 -2.473201,0.47871 -1.226195,0.32609 -2.4317,0.72826 -3.666503,1.02923 -1.857729,0.35612 -3.722465,0.19509 -5.572157,-0.0955 -1.355264,-0.15917 -2.642023,-0.53134 -3.903831,-1.03184 -1.859251,-1.04375 2.258414,1.26835 2.684986,1.496 0.0099,0.005 -0.169209,-0.12759 -0.01982,-0.19501 0.209634,-0.0946 0.447077,-0.10835 0.671639,-0.15804 2.268935,-0.24048 4.491061,-0.76324 6.713196,-1.2631 2.656039,-0.66356 5.340654,-1.19291 8.065061,-1.46662 2.047838,-0.17111 4.100274,-0.0885 6.141649,-0.33396 1.662882,-0.26278 3.33871,-0.45706 4.992073,-0.77508 0,0 -3.194206,-2.22902 -3.194206,-2.22902 v 0 c -1.642742,0.31754 -3.304857,0.5229 -4.960805,0.75943 -2.040353,0.21039 -4.091858,0.13427 -6.133277,0.33815 -2.71462,0.31353 -5.380056,0.90253 -8.03579,1.53862 -2.266154,0.49117 -4.535715,0.93309 -6.840112,1.198 -3.10692,0.9829 1.312604,2.79025 3.008522,3.51691 1.26968,0.4768 2.585717,0.7726 3.931978,0.94406 1.880068,0.26061 3.777419,0.35403 5.651815,-0.0326 1.23766,-0.30309 2.452645,-0.69733 3.697409,-0.96517 0.827008,-0.13812 1.632302,-0.37777 2.465163,-0.48052 0.87336,-0.12445 1.745937,-0.20339 2.628558,-0.1168 1.582068,0.1957 -0.276786,0.005 -2.953168,-1.94766 -0.08194,-0.0598 0.142616,-0.15007 0.183028,-0.2431 0.01408,-0.0324 -0.661606,0.21335 -0.791006,0.20043 -1.085228,0.21723 -2.180254,0.47043 -3.29511,0.36414 -0.994958,-0.0745 -1.998705,-0.17193 -2.911576,-0.60922 -0.788003,-0.36741 -1.57871,-0.57549 -2.460087,-0.52794 -1.418559,-0.0486 -2.836233,-0.12755 -4.248865,-0.26925 -0.591526,-0.0501 -1.658456,-0.23505 -2.226987,0.005 -0.276685,0.11676 -0.279598,0.25438 -0.386892,0.50208 1.170289,0.71281 2.334413,1.43585 3.510867,2.13844 0.20265,0.12103 0.816621,0.36099 0.963417,0.41717 1.106403,0.42348 2.23367,0.79024 3.354559,1.17255 1.902987,0.57267 3.823343,1.20267 5.836163,1.07104 1.052317,0.001 2.104636,-0.005 3.156951,1.5e-4 0.882446,0.003 1.764897,0.004 2.647344,5.3e-4 0.966022,-0.003 1.932045,-0.006 2.898073,-0.004 1.003869,0.003 2.009042,0.007 3.010525,0.0842 0.919017,0.0845 1.823323,0.23948 2.723803,0.44149 0.851263,0.148 1.681633,0.39908 2.542803,0.49236 1.07551,0.18959 2.13267,0.50665 3.23223,0.52366 1.12303,-10e-4 2.24609,-1.3e-4 3.36908,-0.0118 1.13377,-0.0174 2.26878,-0.0398 3.39745,-0.15895 1.1233,-0.11143 2.24639,-0.25224 3.37785,-0.20325 1.06103,-2.6e-4 2.12755,0.0162 3.1826,-0.11235 0.75532,-0.15469 1.39483,-0.47484 1.28919,-1.35951 -0.1878,-0.68921 -0.49599,-1.2516 -1.06072,-1.70694 -0.38197,-0.49704 -0.96576,-0.74984 -1.31454,-1.2776 -0.45503,-0.46652 -0.74523,-1.07563 -1.27575,-1.47128 -1.28516,-1.7924 -3.68332,-2.5786 -5.73432,-3.24472 -1.58433,-0.40361 -3.19498,-0.68159 -4.79783,-0.99654 -1.55468,-0.39138 -3.10461,-0.80379 -4.69641,-1.02202 -3.159439,-0.61667 -6.270355,-1.44783 -9.409736,-2.15617 -1.521767,-0.38042 -2.180312,-0.52472 -3.65987,-0.97112 -0.522719,-0.15771 -1.044176,-0.32084 -1.558375,-0.50442 -0.426088,-0.15213 -1.613633,-0.7856 -1.260967,-0.50219 0.763479,0.61353 1.679128,1.00888 2.518857,1.51304 0.195805,0.11756 -0.391385,-0.23548 -0.587079,-0.35322 -0.109852,-0.0976 -0.851635,-0.83248 -0.822335,-1.0116 0.0186,-0.11372 0.329247,-0.16598 0.36014,-0.175 0.745022,-0.0612 1.494996,-0.0125 2.241838,-0.0326 0.766183,-0.002 1.533491,-0.01 2.298362,0.0429 0.788357,0.0749 1.565126,0.21616 2.267246,0.60514 -7.158829,-4.16007 -0.345959,-0.196 0.766635,0.42658 1.009521,0.56491 -4.008921,-2.31084 -3.001734,-1.74178 1.256773,0.71007 2.498349,1.44673 3.75054,2.16486 0.116625,0.0669 0.471442,0.25853 0.355737,0.19007 -1.012931,-0.59933 -2.031799,-1.18856 -3.047698,-1.78284 0.293521,0.1812 0.50727,0.39309 0.773676,0.60135 1.252149,0.97883 2.727687,1.6944 4.163949,2.39117 0.681823,0.28846 1.314185,0.67543 2.016445,0.91368 1.071799,0.30088 2.198169,0.33789 3.304249,0.40251 1.67294,0.002 3.35603,-0.0234 5.0193,0.17623 0.34667,0.0746 0.45847,0.0834 0.78508,0.21164 0.10614,0.0417 0.40771,0.20352 0.30971,0.14523 -5.45594,-3.24521 -3.76522,-2.16056 -2.57325,-1.50137 0.94391,0.75036 -0.52372,-0.43403 0.43355,0.40131 1.31128,1.14428 2.95242,1.90656 4.52348,2.65656 0.74083,0.25261 1.49907,0.2667 2.25753,0.4342 1.41213,0.55965 0.27645,0.12591 -2.85547,-1.72477 -0.0787,-0.0465 0.16686,0.0764 0.24311,0.12679 0.27701,0.18307 0.15943,0.15638 0.39381,0.39422 0.0661,0.0671 0.14337,0.12215 0.21505,0.18322 0.42866,0.52789 0.93236,0.99194 1.30771,1.56643 0.43493,0.73662 0.93046,1.39995 1.47236,2.06095 1.63019,1.49861 -0.44081,0.032 4.14403,2.69598 0.31465,0.18282 0.52211,-0.0644 0.63209,-0.34408 -0.18247,-0.55585 -1.127,-0.94315 -1.5517,-1.32673 -0.42997,-0.25136 -0.83135,-0.54083 -1.25894,-0.79544 -1.25004,-0.74435 -2.50312,-1.4836 -3.75689,-2.22165 -0.10815,-0.0637 -0.43706,-0.24682 -0.32877,-0.18341 1.01929,0.59678 2.04121,1.18907 3.06182,1.7836 -1.78623,-1.14812 -8.19957,-4.78634 -1.42765,-0.82968 0.26017,0.15201 -1.06069,-0.60523 -0.76511,-0.48141 -0.76735,-0.46381 -1.54197,-0.91248 -2.26948,-1.43904 -1.51034,-0.90461 -2.92626,-1.74377 -4.51016,-2.66836 -0.98954,-0.57762 3.96646,2.29619 2.97405,1.72351 -3.4638,-1.99881 -6.055,-3.51735 -0.88384,-0.49681 -1.26535,-0.73901 -2.52791,-1.48284 -3.79606,-2.21705 -0.14646,-0.0848 -0.59283,-0.32656 -0.4475,-0.23983 0.96699,0.57717 1.93877,1.14632 2.91291,1.71134 0.24471,0.14193 -0.4707,-0.31399 -0.70911,-0.46626 -0.10412,-0.0665 -0.2124,-0.12625 -0.3186,-0.18938 -0.35917,-0.19123 -0.64561,-0.4575 -0.99045,-0.6622 -1.5322,-0.90956 -3.09176,-1.9132 -4.74186,-2.64767 -0.810807,-0.30281 -1.662537,-0.49461 -2.509596,-0.66791 -1.006874,-0.12246 -2.011817,-0.19392 -3.027251,-0.15951 -0.813321,-0.0103 -1.628402,-0.0246 -2.437088,-0.12032 -0.786317,-0.10383 -1.561668,-0.29394 -2.357228,-0.31209 -1.109303,-0.0826 -2.210358,-0.23663 -3.30204,-0.45163 -1.147659,-0.20353 -2.285407,-0.42585 -3.394519,-0.79326 -0.841637,-0.22799 -1.6749,-0.28931 -2.546641,-0.25117 -0.88383,-0.0179 -1.769409,-0.044 -2.646278,-0.16556 -0.987809,-0.13298 -1.973646,-0.26533 -2.974036,-0.2068 -1.15802,0.003 -2.31603,0.003 -3.474048,-0.003 -0.952444,-7.9e-4 -1.904862,-0.009 -2.857306,-0.006 -1.018953,0.006 -2.039671,0.0126 -3.055469,0.1013 -0.915837,0.12219 -1.816349,0.32089 -2.68064,0.65507 -0.856927,0.27109 -1.698815,0.6017 -2.581137,0.78345 -1.309259,0.12757 -2.629786,0.13281 -3.933629,0.32543 -0.961869,0.13908 -1.932377,0.20789 -2.885692,0.40227 -0.858742,0.16694 -1.72844,0.26996 -2.580528,0.47243 -1.081358,0.2015 -2.178156,0.35799 -3.192503,0.81225 -1.001966,0.39147 -2.020292,0.74395 -2.916954,1.35614 -0.839817,0.48914 -1.727584,0.88759 -2.611234,1.29003 -0.956215,0.47524 -1.962936,0.84688 -2.872573,1.4097 -0.828932,0.62264 -1.535621,1.36339 -2.217502,2.14164 -0.618625,0.73565 -1.2631,1.46319 -2.056411,2.01626 -0.905943,0.59466 -1.857904,1.13562 -2.874708,1.51718 -0.735261,0.31692 -1.492062,0.67554 -2.309905,0.66174 -1.483603,-0.42526 -0.103955,-0.0569 2.877651,1.8835 0.04767,0.031 -0.140957,0.0283 -0.169339,-0.021 -0.08752,-0.15199 0.193077,-0.30089 0.331473,-0.40863 0.121382,-0.0945 0.253746,-0.17398 0.380619,-0.26097 0.828876,-0.45562 1.735844,-0.73284 2.654022,-0.95042 1.229579,-0.17512 2.470319,-0.27123 3.696671,-0.47435 0.184454,-0.0136 0.368411,-0.0392 0.553363,-0.0409 0.15395,-0.002 0.587324,0.11902 0.460814,0.0313 -0.982327,-0.68131 -2.069325,-1.19933 -3.075572,-1.84479 -0.07559,-0.0485 0.17699,0.0308 0.266025,0.0426 0.06186,0.008 0.151511,-0.0347 0.186412,0.0171 0.03472,0.0515 -0.03654,0.11866 -0.05481,0.17799 -0.358042,0.55253 -0.767463,1.04083 -1.293746,1.44479 -1.201095,0.91762 -2.50839,1.68045 -3.883671,2.3107 -2.051912,0.94802 -4.14415,1.81154 -6.255424,2.61778 -0.660874,0.21525 -1.325393,0.46143 -2.028483,0.48975 -1.318765,0.0531 -3.960172,-2.34945 2.498425,1.85453 -0.438843,-0.45082 0.434554,-1.16528 0.692888,-1.50485 0.550596,-0.48889 1.169649,-0.855 1.832073,-1.17668 0.750348,-0.48691 1.497867,-0.97614 2.260394,-1.44538 0.976511,-0.48184 1.996739,-0.86307 3.04878,-1.14721 0.139597,-0.0368 0.276752,-0.0846 0.418785,-0.11044 0.110543,-0.0201 0.428983,0.0362 0.336003,-0.0269 -1.022342,-0.69357 -2.142654,-1.2326 -3.180461,-1.9028 -0.06302,-0.0407 0.157205,-0.038 0.22497,-0.006 0.204187,0.0969 -0.05636,0.47036 -0.0688,0.50023 -0.734004,1.09145 -1.756809,1.92108 -2.499267,3.00438 -0.744416,0.77531 -1.631452,1.35021 -2.586149,1.84013 -0.75615,0.35671 -1.58987,0.5172 -2.34508,0.88359 -0.892811,0.32723 -1.767057,0.68619 -2.632076,1.07682 -0.917307,0.29545 -1.883823,0.33975 -2.792694,0.65619 -0.668069,0.34488 -1.196831,0.8764 -1.638253,1.48206 -0.454308,0.69304 -0.931267,1.37431 -1.337199,2.09563 -0.301671,0.74747 -0.372838,1.38595 -0.328423,2.19348 -0.02715,0.77246 -0.07249,1.54854 -0.271213,2.29942 -0.218326,0.78836 -0.493985,1.56194 -0.574262,2.38222 5.82e-4,0.015 0.01798,0.65829 0.04962,0.67972 2.16595,1.46721 2.729896,2.73041 4.478845,1.79839 0.583566,-0.37044 1.132087,-0.79205 1.718192,-1.15881 0.690159,-0.45792 1.275693,-1.03062 1.876713,-1.5963 0.524914,-0.48112 1.004753,-1.00816 1.543804,-1.47345 0.600834,-0.55247 1.201904,-1.08814 1.715603,-1.72731 0.531291,-0.51337 1.092549,-0.99752 1.593334,-1.54124 0.589007,-0.63894 1.359066,-1.0643 2.066303,-1.55925 0.83475,-0.50236 1.643197,-1.04358 2.465583,-1.56543 0.892395,-0.60081 1.840468,-1.09628 2.845496,-1.48282 0.816732,-0.35268 1.62587,-0.7548 2.499519,-0.94495 0.854093,-0.17812 1.674968,-0.47836 2.533861,-0.62649 0.717939,-0.0897 1.412812,-0.25407 2.043417,-0.62577 0.689515,-0.33884 1.390372,-0.65777 2.104464,-0.94139 0.681826,-0.34249 1.337821,-0.71992 2.080183,-0.92614 0.89942,-0.35484 1.790224,-0.72838 2.671202,-1.12752 0.982292,-0.40479 2.013797,-0.62186 3.049034,-0.84977 0.818121,-0.12062 1.64119,-0.0844 2.466227,-0.0769 1.129403,0.0175 2.259475,0.0487 3.384579,0.1554 1.30208,0.1198 2.603997,0.26233 3.914031,0.2193 1.178084,-0.005 2.356231,-0.012 3.534294,1.1e-4 1.052819,0.0155 2.106805,0.0298 3.156513,0.11995 1.322253,0.11981 2.643016,0.30398 3.97446,0.25474 1.7164,0.01 3.432789,-0.008 5.149196,0.003 1.962981,-0.0245 3.926465,-0.054 5.887678,-0.14498 2.745642,-0.1674 5.489575,-0.36917 8.238305,-0.4803 2.152763,-0.0816 4.314425,-0.18269 6.456682,0.1141 1.238052,0.16275 2.426602,0.42253 3.609622,0.81177 1.18139,0.16385 2.38069,0.10483 3.56146,0.28806 0.24914,0.0415 0.50036,0.072 0.74742,0.1245 0.2234,0.0474 0.84902,0.30656 0.66246,0.17484 -0.90804,-0.64108 -1.91063,-1.13673 -2.85508,-1.72285 -0.45108,-0.27994 1.53129,0.81887 1.02329,0.71451 0.68014,0.53027 0.94459,1.3048 1.59582,1.87256 1.61505,0.95957 3.35886,2.87511 5.38833,2.19567 0.8979,-0.39954 1.57111,-1.07288 2.30729,-1.70857 0.77634,-0.66899 1.54576,-1.36572 2.17535,-2.17782 0.44846,-0.71265 0.76841,-1.47234 0.7942,-2.32828 0.0102,-0.16856 0.0417,-0.64542 0.0292,-0.65449 -2.81061,-2.03966 -2.43144,-2.43621 -4.46647,-2.05415 -1.03644,0.13081 -2.08629,0.14437 -3.11651,0.33205 -1.13755,0.0815 -2.28258,-0.0217 -3.42108,-0.0359 -1.47533,-0.0708 -2.94414,-0.20623 -4.41658,-0.31338 -1.27365,0.002 -2.54731,-8e-4 -3.820971,-5.3e-4 -1.295617,0.002 -2.591199,-0.004 -3.886808,-0.009 -1.11097,0.004 -2.223379,-1.2e-4 -3.33257,0.0704 -0.983255,0.0837 -1.947458,0.25556 -2.891502,0.54995 -1.032827,0.23657 -2.084239,0.33254 -3.135672,0.45121 -1.318361,0.12447 -2.640539,0.0814 -3.958839,-0.0377 -1.355241,-0.13757 -2.698157,-0.35189 -4.032305,-0.62794 z" />
      <path
         style="fill:#ffff00;stroke-width:0.264583"
         id="path15"
         d="m 78.319568,134.14808 c -1.475801,0.12074 -2.918391,0.44956 -4.369866,0.72554 -1.365533,0.28959 -2.67221,0.78901 -4.013253,1.16678 -0.996474,0.17684 -1.965277,0.39505 -2.937462,0.67451 -0.88863,0.34632 -1.81233,0.5685 -2.7084,0.88954 -0.820123,0.20133 -1.658789,0.3009 -2.490753,0.44322 -1.318572,0.24686 -2.559118,0.76766 -3.850587,1.11705 -0.871492,0.25402 -1.740667,0.0989 -2.594004,-0.12888 -0.77298,-0.21458 -1.570947,-0.28752 -2.369254,-0.31915 -0.897149,-0.0605 -1.775523,-0.0283 -2.66174,0.10683 -0.861658,0.17096 -1.668877,0.49673 -2.498222,0.77 -0.783622,0.30231 -1.498108,0.74686 -2.265868,1.08087 -0.77978,0.44728 -1.678262,0.55032 -2.517079,0.84267 -0.944721,0.34843 -1.946648,0.48655 -2.884635,0.85296 -0.756923,0.40253 -1.525228,0.76928 -2.276317,1.18214 -0.847328,0.34145 -1.531043,0.9635 -2.26388,1.49371 -1.076757,0.75321 -2.053839,1.63577 -3.112448,2.41098 -0.795258,0.62015 -1.696553,1.07068 -2.660504,1.35552 -0.898673,0.28349 -1.775227,0.61716 -2.64477,0.97825 -0.624686,0.33828 -1.225193,0.72849 -1.7299,1.23135 -0.484449,0.46899 -1.144336,0.67061 -1.739078,0.96106 -0.802195,0.25627 -1.508773,0.68388 -2.196785,1.15546 -0.642754,0.30471 -1.154109,0.79533 -1.698243,1.23848 -0.464775,0.41101 -0.638481,1.0222 -0.976611,1.5246 -1.330508,2.12927 -0.735966,1.14641 3.042367,3.1206 1.21342,-0.76479 2.468683,-1.45873 3.706432,-2.18233 1.472634,-0.8362 2.784264,-1.90088 4.062243,-3.00311 1.033286,-0.81863 2.051982,-1.65354 3.02858,-2.5392 0.930971,-0.77568 2.040729,-1.28448 3.058403,-1.93439 0.895774,-0.51358 1.811422,-0.99015 2.701978,-1.51405 0.679752,-0.3887 1.374302,-0.77608 2.010926,-1.23398 0.754608,-0.46659 1.469268,-0.99309 2.207173,-1.48525 0.788908,-0.39767 1.51734,-0.89646 2.353588,-1.19178 0.757988,-0.20867 1.509193,-0.43699 2.259065,-0.67351 0.714777,-0.27972 1.457558,-0.45401 2.191557,-0.67601 0.916853,-0.2644 1.847032,-0.47044 2.772301,-0.70141 1.001514,-0.30396 2.054789,-0.32041 3.073265,-0.51913 0.751713,-0.22492 1.551853,-0.19698 2.3049,-0.39247 0.638796,-0.20449 1.303446,-0.27311 1.969177,-0.31424 0.713147,0.0189 1.345597,-0.32406 2.007058,-0.5354 0.706331,-0.17358 1.333047,-0.54265 2.028877,-0.75296 0.816409,-0.18161 1.613221,-0.45573 2.355538,-0.84088 0.74222,-0.35921 1.551559,-0.48383 2.36405,-0.55418 0.76654,-0.0232 1.520862,-0.2173 2.173168,-0.62254 0.302665,-0.30241 0.321699,-0.85786 -0.08525,-1.11024 -3.409011,-2.11421 -2.404388,-1.76036 -4.244943,-2.32809 -2.543411,-0.5879 -5.149977,-0.66337 -7.747527,-0.68477 -3.004531,0.0884 -5.97173,0.547 -8.901522,1.19339 -1.949731,0.57318 -3.740576,1.55552 -5.499018,2.55394 -1.819815,1.09637 -3.485576,2.4245 -5.065419,3.83941 -1.12668,1.00319 -2.146633,2.11211 -3.182569,3.20466 -0.803686,0.78987 -1.53419,1.64787 -2.331429,2.44401 -0.735063,0.72699 -1.448547,1.47679 -2.143961,2.24225 -0.835531,0.7881 -1.670622,1.58075 -2.550282,2.31973 -0.72353,0.72186 -1.513303,1.36139 -2.29371,2.01599 -0.694786,0.51751 -1.462101,0.92976 -2.21258,1.35994 -0.646266,0.41448 -1.372704,0.71056 -2.101696,0.95046 -0.626758,0.26197 -1.185705,0.63949 -1.770531,0.97949 -0.4711,0.39544 -1.035687,0.64181 -1.509969,1.03208 -0.491013,0.35591 -0.881976,0.82818 -1.340277,1.22476 -0.584119,0.35254 -1.179467,0.67927 -1.765848,1.03639 -0.600125,0.44931 -1.11248,0.91848 -1.45241,1.59315 -0.269258,0.60289 -0.425892,1.24355 -0.642729,1.86349 -0.184556,0.58332 -0.385254,1.15901 -0.576121,1.74049 -0.321108,0.86889 -0.585902,0.0841 3.300378,1.88248 0.08669,0.0401 -0.02329,-0.18967 -0.03094,-0.28488 -0.0085,-0.10603 -0.01171,-0.21241 -0.01756,-0.31862 -0.04053,-0.81019 -0.01415,-1.61489 0.08209,-2.41966 0.134578,-0.93762 0.220723,-1.88028 0.267802,-2.82602 0.03243,-0.80494 0.03526,-1.61072 0.03145,-2.41618 0.06766,-0.86076 0.198449,-1.71516 0.400473,-2.55427 0.336092,-0.71936 0.461446,-1.50285 0.679686,-2.25783 0.171383,-0.62848 0.546087,-1.18115 0.920381,-1.70769 0.605311,-0.5329 1.315887,-0.9321 1.978268,-1.39441 1.027888,-0.85418 2.079527,-1.67743 3.120028,-2.51583 0.821592,-0.62516 1.63596,-1.26905 2.426862,-1.93742 1.248454,-1.24313 2.710877,-2.16915 4.298602,-2.90855 1.481368,-0.70315 2.975417,-1.36391 4.562534,-1.78418 0.673872,-0.18758 1.333084,-0.41811 2.003197,-0.61832 0,0 -3.234396,-2.20734 -3.234396,-2.20734 v 0 c -0.664128,0.20463 -1.32283,0.42602 -1.991757,0.61477 -1.588844,0.46064 -3.091376,1.13505 -4.579953,1.85311 -1.605301,0.77289 -3.085622,1.74507 -4.389302,2.96799 -0.797514,0.6584 -1.620304,1.28663 -2.424647,1.93474 -1.018298,0.85071 -2.065498,1.66167 -3.105357,2.48605 -0.705918,0.47976 -1.49407,0.8675 -2.078218,1.49895 -0.389608,0.56723 -0.794608,1.1526 -0.97813,1.82236 -0.226051,0.75949 -0.328414,1.55666 -0.682638,2.27778 -0.211614,0.86873 -0.345322,1.74843 -0.443056,2.6377 -0.0044,0.80012 5.82e-4,1.60045 -0.02444,2.40031 -0.03631,0.93755 -0.106006,1.87346 -0.242722,2.80234 -0.111274,0.82149 -0.176244,1.63679 -0.132598,2.46724 0.0032,0.13686 0.0123,0.63031 0.02276,0.63836 1.674154,1.29008 3.11311,3.63745 3.734366,1.77568 0.184181,-0.57965 0.394931,-1.14751 0.570067,-1.72985 0.219535,-0.60231 0.355953,-1.23486 0.615811,-1.82494 0.296933,-0.60614 0.789496,-1.01055 1.331139,-1.40087 0.612862,-0.35203 1.232117,-0.6955 1.813096,-1.09676 0.441193,-0.40304 0.84532,-0.85068 1.330433,-1.20194 0.477047,-0.35388 1.008119,-0.62561 1.476865,-0.99196 0.557402,-0.33659 1.113515,-0.68123 1.722786,-0.91768 0.740463,-0.27663 1.481069,-0.57888 2.144057,-1.01367 0.7566,-0.45415 1.54514,-0.86463 2.234967,-1.41987 0.793059,-0.64145 1.546447,-1.32176 2.284068,-2.0273 0.890284,-0.75338 1.740916,-1.55468 2.586805,-2.35721 0.695817,-0.75695 1.400847,-1.50676 2.126615,-2.23446 0.790829,-0.80803 1.550329,-1.64601 2.343544,-2.45184 1.000033,-1.10446 2.009929,-2.20016 3.116392,-3.20165 1.56826,-1.39309 3.198953,-2.72562 5.028515,-3.76584 1.724033,-0.98387 3.489283,-1.93182 5.409573,-2.47444 2.893785,-0.6451 5.826408,-1.12044 8.799081,-1.15765 2.610284,0.0468 5.254247,0.13587 7.778403,0.87285 1.617837,0.69842 0.516607,0.24866 -2.524818,-1.57607 -0.02151,-0.0129 0.745763,0.37376 0.435653,0.43308 -0.645311,0.33303 -1.349526,0.45984 -2.072148,0.4925 -0.845302,0.10346 -1.677718,0.28136 -2.444136,0.66881 -0.744744,0.34691 -1.522876,0.59935 -2.320849,0.79443 -0.686294,0.23416 -1.331878,0.5731 -2.037392,0.75207 -0.637114,0.22116 -1.261729,0.47431 -1.950979,0.45548 -0.678545,0.0601 -1.347203,0.16967 -2.00302,0.35837 -0.760225,0.13258 -1.532417,0.19871 -2.283426,0.38767 -1.028896,0.16109 -2.06924,0.25871 -3.07554,0.54645 -0.937692,0.2145 -1.871877,0.4411 -2.797368,0.70427 -0.745898,0.1979 -1.470309,0.43631 -2.200096,0.68466 -0.754604,0.2406 -1.520531,0.44239 -2.272059,0.69329 -0.837268,0.34685 -1.602689,0.83812 -2.396191,1.27178 -0.734083,0.50535 -1.470567,1.00345 -2.222076,1.48236 -0.641017,0.43362 -1.308984,0.83293 -1.981957,1.21425 -0.894778,0.51759 -1.807617,1.00302 -2.691799,1.53796 -1.039572,0.65445 -2.178251,1.16552 -3.102306,1.98654 -0.970343,0.88188 -1.980499,1.71627 -2.992126,2.55016 -1.262586,1.08928 -2.577588,2.11021 -4.029445,2.93927 -1.226144,0.71475 -2.454491,1.43547 -3.716884,2.08233 1.047293,0.70507 2.091827,1.41426 3.141881,2.1152 0.01677,0.0112 -0.04368,-0.025 -0.0405,-0.0449 0.01121,-0.0703 0.047,-0.1349 0.0793,-0.19836 0.137572,-0.27029 0.333791,-0.50253 0.482777,-0.76579 0.30913,-0.47533 0.480985,-1.04379 0.912703,-1.42771 0.526855,-0.44804 1.056729,-0.8876 1.672853,-1.21179 0.671068,-0.46436 1.392143,-0.82436 2.161262,-1.10253 0.640104,-0.29289 1.313762,-0.54959 1.813668,-1.066 0.486477,-0.45108 1.045906,-0.82064 1.640055,-1.11499 0.8574,-0.36176 1.735275,-0.66629 2.620592,-0.95273 0.985485,-0.33606 1.904219,-0.81976 2.719257,-1.47381 1.043133,-0.79542 2.027278,-1.66562 3.118403,-2.39899 0.725967,-0.52073 1.416595,-1.10027 2.248996,-1.44787 0.731747,-0.40887 1.491998,-0.75706 2.240235,-1.13443 0.942739,-0.32906 1.932948,-0.4935 2.86902,-0.84583 0.861396,-0.26574 1.763582,-0.41218 2.554925,-0.87014 0.745334,-0.35698 1.462963,-0.77418 2.246818,-1.04733 0.800965,-0.28755 1.60085,-0.57589 2.445406,-0.71357 0.871098,-0.10922 1.744001,-0.0943 2.619914,-0.0422 0.786636,0.0585 1.566778,0.16443 2.328215,0.37842 0.8983,0.19906 1.807397,0.237 2.69608,-0.048 1.272815,-0.37763 2.512073,-0.88819 3.834058,-1.07647 0.851329,-0.1426 1.719334,-0.22104 2.54267,-0.4927 0.88388,-0.31964 1.796061,-0.55172 2.678348,-0.87793 0.969375,-0.27538 1.956848,-0.42994 2.931888,-0.68124 1.319784,-0.39998 2.61957,-0.87807 3.975081,-1.14923 1.455528,-0.28983 2.910478,-0.57874 4.394859,-0.67538 z" />
      <path
         style="fill:#ffffff;stroke-width:0.264583"
         id="path16"
         d="m 49.91631,121.36204 c -1.01431,0.95158 -2.119961,1.79576 -3.186327,2.68676 -0.885905,0.7676 -1.762472,1.54449 -2.66609,2.29116 -0.766241,0.6702 -1.475184,1.40228 -2.256308,2.05719 -0.831046,0.77627 -1.705214,1.54012 -2.449383,2.40515 -0.556871,0.48908 -1.017606,1.03649 -1.460355,1.62895 -0.570769,0.81257 -1.128855,1.63437 -1.710481,2.43931 -0.47776,0.79969 -1.011745,1.55728 -1.559877,2.309 -0.533347,0.6319 -0.941599,1.35341 -1.432026,2.01499 -0.546367,0.90707 -1.154313,1.77387 -1.762739,2.63977 -0.633497,1.13078 -1.20942,2.29186 -1.817131,3.43615 -0.583692,0.99298 -1.153687,1.99512 -1.674919,3.02245 -0.444283,0.85932 -0.906729,1.7155 -1.289036,2.60484 -0.364415,0.58083 -0.56082,1.21179 -0.667525,1.88327 -0.03512,0.40437 -0.05404,0.80588 -0.109699,1.20802 0,0 3.494396,1.84692 3.494396,1.84692 v 0 c 0.0652,-0.40183 0.09194,-0.7999 0.115938,-1.20625 0.08704,-0.64469 0.268748,-1.24074 0.615373,-1.79831 0.364001,-0.88682 0.811914,-1.7418 1.254573,-2.59102 0.524547,-1.02337 1.087527,-2.02654 1.666806,-3.01989 0.598072,-1.13009 1.155544,-2.28181 1.796693,-3.38897 0.615415,-0.85781 1.210751,-1.7301 1.771028,-2.62517 0.492643,-0.66248 0.908902,-1.38059 1.441384,-2.01544 0.540996,-0.75605 1.062709,-1.52258 1.547137,-2.31676 0.579382,-0.80382 1.130673,-1.62705 1.720964,-2.42322 0.441407,-0.57885 0.910717,-1.1101 1.435717,-1.6149 0.728001,-0.8505 1.577811,-1.60884 2.407097,-2.35592 0.7797,-0.65649 1.494874,-1.38216 2.26179,-2.05185 0.896088,-0.75284 1.763189,-1.53854 2.649019,-2.30334 1.065557,-0.8972 2.154727,-1.76598 3.218532,-2.66515 z" />
      <path
         style="fill:#ffffff;stroke-width:0.264583"
         id="path17"
         d="m 50.209203,121.67658 c 0.499854,1.21274 1.107194,2.37725 1.675403,3.55865 0.613076,1.33188 1.508077,2.49483 2.328267,3.70053 0.652843,0.89617 1.298109,1.79378 1.875401,2.74069 0.623036,0.90415 1.067258,1.90659 1.591588,2.86611 0.386358,0.73609 0.847129,1.41772 1.082923,2.22018 0.133604,0.72647 0.284602,1.45277 0.543492,2.14579 0.215606,0.49768 0.275524,1.03632 0.383653,1.562 0,0 3.573733,1.70958 3.573733,1.70958 v 0 c -0.164058,-0.52467 -0.149604,-1.08978 -0.363747,-1.60438 -0.270401,-0.67728 -0.485333,-1.37718 -0.57496,-2.10497 -0.175573,-0.86338 -0.62066,-1.56218 -1.049825,-2.3198 -0.537212,-0.95706 -0.969121,-1.96804 -1.589325,-2.87846 -0.564283,-0.97176 -1.199357,-1.88527 -1.886572,-2.77451 -0.828852,-1.18322 -1.701538,-2.34146 -2.345582,-3.64073 -0.558723,-1.17111 -1.189968,-2.31378 -1.64842,-3.5282 z" />
      <path
         style="fill:#ffffff;stroke-width:0.264583"
         id="path18"
         d="m 56.526525,125.26466 c 1.354515,-0.0304 2.698871,-0.0541 4.038721,0.16376 1.339988,0.24852 2.691786,0.39695 4.026712,0.66966 1.0765,0.1246 2.120525,0.37355 3.157112,0.67984 0.866709,0.24077 1.759466,0.34545 2.640613,0.51851 0.998754,0.18021 1.96551,0.50265 2.952678,0.73857 1.099519,0.31823 2.124515,0.83732 3.200014,1.21597 1.393905,0.49034 2.810219,0.91112 4.188666,1.44458 1.376847,0.55297 7.168783,3.91862 1.166847,0.51471 0.995569,0.63332 1.925791,1.35833 2.905189,2.01489 0.840515,0.55585 1.606407,1.21328 2.422419,1.80186 0.678651,0.51932 1.413428,0.95609 2.114082,1.44312 2.098524,1.48461 7.811992,4.42301 1.210471,0.77185 -0.459269,-0.25401 0.536265,0.4231 0.856088,0.66995 0.50019,0.31085 0.792899,0.807 1.049081,1.32086 0.04161,-0.0297 0.235815,0.58187 0.256506,0.56379 0.06981,-0.061 0.03163,-0.28884 0.11689,-0.25241 3.13299,1.33875 4.194001,2.80204 3.212941,1.5144 -0.602776,-0.73179 -1.027988,-1.57507 -1.53144,-2.37147 -0.426148,-0.68906 -0.841377,-1.37337 -1.367255,-1.99067 -0.434629,-0.52238 -0.843304,-1.06813 -1.350108,-1.52293 -1.288412,-1.1254 -2.812537,-1.92393 -4.283694,-2.77732 -3.266289,-1.97392 -6.684875,-3.66295 -10.095876,-5.36356 -0.525351,-0.26193 -2.980809,-1.47915 -3.647352,-1.75716 -0.511241,-0.21322 -1.041802,-0.3768 -1.562706,-0.5652 -1.883577,-0.59152 -3.829013,-1.07592 -5.813475,-0.98007 -1.642618,0.1364 -3.285379,0.26056 -4.932458,0.32555 -1.678432,0.0469 -3.357734,0.0528 -5.036722,0.0558 -1.145537,-0.11483 -2.41586,0.24312 -3.50184,-0.22035 5.352267,3.01468 3.325355,2.54738 2.783872,1.15092 0,0 -3.568756,-1.68997 -3.568756,-1.68997 v 0 c 0.44644,1.99098 0.861256,1.44278 3.913566,2.95782 1.157317,0.23114 2.356247,0.0324 3.527457,0.0923 1.679636,-0.004 3.359343,-0.0109 5.038132,-0.0716 1.651299,-0.0575 3.294256,-0.21963 4.943681,-0.3112 1.927543,0.001 3.815964,0.41956 5.63992,1.03202 2.539571,0.96087 4.941046,2.20188 7.363187,3.42562 0.808829,0.40864 1.581359,0.89742 2.423956,1.23092 0.361665,0.14314 -0.644249,-0.43601 -0.966374,-0.65402 1.398513,0.82089 2.872496,1.57794 4.102486,2.64933 0.563705,0.38255 0.941554,0.92846 1.388165,1.43438 0.563155,0.79039 -0.127812,-0.13337 0.478587,0.54428 0.374925,0.41897 0.570269,0.97761 0.910267,1.42302 0.538393,0.77437 0.916651,1.64069 1.506013,2.38038 0.935567,1.33419 4.919711,3.55438 3.654473,1.40332 -0.204655,-0.56103 -0.513625,-1.13497 -0.966975,-1.52754 -0.321728,-0.19914 -0.593847,-0.52366 -0.862547,-0.68812 -3.189071,-1.95186 -6.197169,-3.56227 -0.801047,-0.47822 0.146608,0.0838 -0.283068,-0.18421 -0.424601,-0.27631 -0.685856,-0.51187 -1.431772,-0.92489 -2.106023,-1.45236 -0.85282,-0.54051 -1.586309,-1.24188 -2.425916,-1.80445 -0.989852,-0.66792 -1.953631,-1.3658 -2.937376,-2.04297 -2.574467,-1.50823 -5.12287,-3.14444 -7.873449,-4.32884 -1.392666,-0.51206 -2.811124,-0.94716 -4.204769,-1.45599 -1.0682,-0.42436 -2.122792,-0.8971 -3.238389,-1.18804 -0.988015,-0.25236 -1.964042,-0.56067 -2.971715,-0.72858 -0.874353,-0.1698 -1.762879,-0.27429 -2.615486,-0.54299 -1.042373,-0.29353 -2.103067,-0.4827 -3.172558,-0.64847 -1.333531,-0.25083 -2.684049,-0.39342 -4.018893,-0.63912 -1.366248,-0.1733 -2.735898,-0.13846 -4.110977,-0.14697 z" />
      <path
         style="fill:#ffffff;stroke-width:0.264583"
         id="path19"
         d="m 56.924931,123.66175 c 1.440757,-0.22756 2.87899,-0.44919 4.332473,-0.58258 1.080921,-0.0939 2.165758,-0.11875 3.250158,-0.12598 0.696775,-0.002 1.367975,0.22012 2.059659,0.30582 0.814226,0.0394 1.608026,0.22714 2.415006,0.335 0.893786,0.10994 1.7957,0.11792 2.694905,0.12993 1.054243,0.0445 2.099898,0.21524 3.15559,0.28821 1.211646,0.29388 2.425436,0.5735 3.660831,0.74607 0.980387,0.12436 1.970341,0.11978 2.956703,0.12141 1.088601,0.0812 2.160849,0.21936 3.22394,0.45775 1.052819,0.2716 2.081966,0.61611 3.123877,0.92336 1.248328,0.38435 2.479415,0.81787 3.727984,1.20207 1.205939,0.33802 2.400406,0.73448 3.572121,1.17856 1.242465,0.50012 2.458358,1.05965 3.682942,1.6045 0.972182,0.41406 1.94978,0.81006 2.94197,1.17368 0.98175,0.30171 1.9168,0.72958 2.85415,1.1462 1.47226,0.67196 5.60076,3.10072 -0.4714,-0.38745 8.62236,4.95109 1.99676,1.13137 0.76399,0.47489 -0.12349,-0.0658 0.21882,0.1744 0.32668,0.26351 0.31242,0.25808 0.62376,0.51728 0.93712,0.77428 0.60876,0.48056 1.1356,1.05119 1.69147,1.58992 0.74943,0.75705 1.39025,1.60909 2.10144,2.40134 0.52303,0.62562 0.94627,1.32719 1.28006,2.06956 0.0402,0.0742 0.42215,0.96004 0.45554,0.90081 0.0574,-0.10178 0.0286,-0.37027 0.13554,-0.32323 1.14918,0.50545 2.19433,1.22037 3.29149,1.83055 -0.54168,-0.7304 -1.12767,-1.42526 -1.67384,-2.15216 -0.48112,-0.61876 -1.04742,-1.16067 -1.48651,-1.81084 -0.5786,-1.06482 -1.32471,-1.99461 -2.22173,-2.80509 -2.37693,-1.67388 -4.99389,-2.96834 -7.64624,-4.13818 -0.7685,-0.27794 -1.44733,-0.73498 -2.16204,-1.12042 -0.204179,-0.11012 -0.818359,-0.43686 -0.618313,-0.3194 0.944793,0.55471 1.901063,1.08967 2.853253,1.63159 0.14586,0.083 -0.2895,-0.16989 -0.43425,-0.25484 -1.946431,-1.17519 -3.745743,-2.55989 -6.019471,-2.80963 -0.853924,-0.0282 -1.670452,-0.24836 -2.427018,-0.63784 -0.664556,-0.24667 -1.314341,-0.5394 -1.991736,-0.75049 -0.5403,-0.36357 -1.164105,-0.47334 -1.797819,-0.54308 -0.788557,-0.1222 -1.456175,-0.55014 -2.186229,-0.83782 -0.747162,-0.25235 -1.545582,-0.372 -2.269977,-0.68537 -0.644863,-0.29396 -1.344792,-0.37297 -2.043162,-0.42208 -0.737902,-0.0786 -1.464003,-0.25048 -2.207522,-0.32925 -0.811033,0.005 -1.592072,-0.16292 -2.389045,-0.27926 -1.152083,-0.15165 -2.299986,-0.33496 -3.434688,-0.5906 -0.897938,-0.21872 -1.815135,-0.31467 -2.736535,-0.34787 -0.884622,-0.0129 -1.751269,-0.22357 -2.630533,-0.31802 -0.767651,-0.10203 -1.549971,-0.0106 -2.310691,-0.14971 -0.759928,-0.16577 -1.532763,-0.24283 -2.307939,-0.28677 -0.846487,-0.0363 -1.694114,-0.0306 -2.541198,-0.0318 -0.818603,-5.2e-4 -1.637208,1.8e-4 -2.455813,5.3e-4 -0.87753,0.003 -1.755071,10e-4 -2.632604,0.004 -1.013976,0.0703 -2.003409,-0.0491 -3.002539,-0.19732 -0.80803,-0.1238 -1.624698,-0.16185 -2.440731,-0.18242 -2.133777,-0.42619 -2.7994,-1.37921 2.099797,1.95427 0.688938,-0.0392 1.379339,-0.0335 2.069079,-0.0316 0.69724,-0.0222 1.448834,0.0557 1.523507,-0.80464 -1.891117,-1.32182 -3.16942,-2.28076 -5.239885,-2.56959 -0.772797,-0.0565 -1.564142,-0.16678 -2.332164,-0.0322 -0.744056,0.2543 -1.498706,0.46905 -2.162601,0.90048 0,0 3.326447,2.14788 3.326447,2.14788 v 0 c 0.640678,-0.36598 1.348066,-0.60091 2.066568,-0.76127 0.753904,-0.0491 1.514166,0.0162 2.261092,0.1211 1.699181,0.33038 4.430972,2.07087 -1.56633,-1.41042 0.319423,-0.15285 0.134461,-0.0305 -0.02936,0.008 -0.341376,0.0807 -0.69633,0.0835 -1.044593,0.0767 -0.713828,1e-5 -1.436942,-0.0252 -2.142681,0.0961 2.365185,1.89765 2.210012,2.45718 4.361876,2.63844 0.805873,0.0304 1.610579,0.0874 2.408028,0.21267 1.008513,0.13922 2.015329,0.18356 3.033787,0.15062 0.880372,0.002 1.760754,5.3e-4 2.641126,0.002 0.816756,-0.001 1.633511,-0.003 2.450267,-0.003 0.844018,0.002 1.688819,0.003 2.531483,0.0568 0.770284,0.0605 1.53212,0.17383 2.29312,0.30651 0.769752,0.063 1.545129,0.0431 2.312466,0.14439 0.879139,0.11129 1.752222,0.29148 2.641817,0.2941 0.904682,0.0594 1.80236,0.17729 2.685216,0.38962 1.145649,0.23893 2.304458,0.40916 3.461459,0.58269 0.797709,0.13554 1.594562,0.21814 2.402047,0.27049 0.741381,0.0991 1.469429,0.28271 2.217637,0.32319 0.683842,0.0779 1.347052,0.22603 1.980406,0.50418 0.75143,0.23119 1.518721,0.4161 2.254499,0.69465 0.730517,0.3225 1.447305,0.67641 2.254152,0.76437 0.620567,0.11191 1.184843,0.33552 1.753552,0.60369 0.657622,0.25096 1.324478,0.47949 1.963526,0.77566 0.798838,0.3189 1.629518,0.48441 2.488642,0.54323 1.775928,0.31504 4.677728,2.12326 -0.815293,-0.96622 2.338691,1.33905 4.633491,2.79063 7.095491,3.89969 0.71049,0.32339 1.41925,0.65106 2.12191,0.99125 0.24771,0.11993 0.97366,0.51154 0.74017,0.36585 -0.62304,-0.38877 -4.01465,-2.35935 -1.90349,-1.1093 0.93387,0.71873 1.69762,1.62512 2.22766,2.68191 0.42989,0.67512 0.93674,1.26336 1.49342,1.84044 0.53772,0.72217 1.11668,1.40997 1.63805,2.1437 1.18031,0.7177 2.30025,1.54572 3.54095,2.15311 0.11597,0.0568 0.1835,-0.18621 0.24608,-0.29915 0.12764,-0.23033 -0.35081,-0.80811 -0.428,-1.03991 -0.30106,-0.78893 -0.73573,-1.5135 -1.23553,-2.19307 -0.70177,-0.80377 -1.39547,-1.61244 -2.09078,-2.42178 -0.53455,-0.55711 -1.08382,-1.11612 -1.67235,-1.61278 -0.30156,-0.27779 -0.93685,-0.85562 -1.26332,-1.059 -2.62591,-1.63585 -6.6038,-3.92246 -0.75071,-0.52387 -2.07392,-1.20156 -4.10261,-2.46667 -6.28092,-3.46747 -0.94506,-0.42063 -1.901032,-0.81917 -2.884993,-1.14055 -0.977379,-0.37495 -1.952106,-0.75399 -2.909546,-1.17827 -1.223545,-0.54524 -2.44312,-1.09682 -3.693285,-1.57954 -1.185105,-0.4231 -2.375791,-0.83606 -3.590112,-1.1678 -1.245161,-0.39454 -2.480683,-0.81843 -3.72985,-1.20033 -1.045834,-0.33009 -2.094119,-0.64848 -3.159736,-0.91017 -1.073412,-0.22633 -2.170054,-0.31394 -3.263437,-0.38563 -0.977506,-0.0128 -1.958155,-0.0253 -2.927398,-0.16768 -1.233593,-0.19131 -2.440278,-0.50545 -3.669387,-0.71848 -1.062363,-0.0904 -2.11745,-0.27407 -3.184948,-0.27993 -0.890746,-0.0164 -1.783485,-0.0406 -2.666423,-0.17035 -0.807596,-0.1216 -1.609932,-0.27546 -2.424787,-0.3427 -0.692518,-0.11238 -1.377847,-0.30521 -2.086579,-0.24989 -1.081196,0.0196 -2.162106,0.0657 -3.238359,0.17577 -1.464128,0.15305 -2.914486,0.39487 -4.376166,0.56436 z" />
      <path
         style="fill:#00ffff;stroke-width:0.264583"
         id="path20"
         d="m 38.336238,67.523044 c 0.896088,1.596856 1.675506,3.252454 2.433413,4.918049 0.831432,1.676765 1.627105,3.370458 2.427303,5.06227 0.832186,1.786369 1.357902,3.694247 1.940856,5.571358 0.78658,2.174967 1.136579,4.442475 1.443683,6.721602 0.321244,2.01192 0.675537,4.019092 0.9364,6.039977 0.120833,2.159468 -0.277968,4.33439 -1.073885,6.34093 -0.512644,1.00535 -0.8499,1.33094 -1.826345,1.82304 -1.049493,0.44088 -2.119423,0.83966 -3.204387,1.18538 -1.222603,0.40104 -2.488163,0.36501 -3.750929,0.26609 -1.316363,-0.31799 -3.690395,-1.52423 2.187408,1.40748 0.125185,0.0624 -0.208431,-0.19137 -0.283662,-0.30931 -0.225129,-0.35295 -0.262694,-0.66882 -0.361003,-1.07174 -0.224113,-1.22642 -0.27147,-2.45055 0.315024,-3.57545 0.609795,-0.70736 1.504651,-0.79058 2.378672,-0.85229 0.225076,0.0221 0.693148,0.0614 0.915559,0.10962 1.177983,0.25523 4.58329,2.4307 -1.606155,-1.10859 13.019516,7.6091 -2.065174,-1.316542 1.708147,0.99671 0.177752,0.10897 0.35315,0.22194 0.533889,0.32588 1.286518,0.73989 2.581159,1.4656 3.867669,2.2055 0.960445,0.55238 -1.926307,-1.09527 -2.889459,-1.64291 1.938194,1.44737 4.044138,2.56435 6.149972,3.7692 1.121325,0.61911 2.318766,1.06332 3.542506,1.42976 1.64692,0.34619 3.347749,0.4332 5.02643,0.37261 1.684695,-0.0911 3.197675,-0.81849 4.733235,-1.43634 1.536996,-0.64537 2.732682,-1.68567 3.808034,-2.9312 0.855744,-1.00255 1.757801,-1.96453 2.137695,-3.252287 0.131316,-1.293797 -0.637167,-2.387934 -1.38258,-3.372951 -0.805212,-1.097481 -1.754103,-2.075775 -2.708034,-3.042515 -0.629991,-0.618628 -1.319546,-1.1865 -2.088012,-1.62669 -3.931754,-2.25217 -2.485906,-1.754307 -4.462947,-2.375189 -1.345007,-0.294036 -2.727531,-0.317238 -4.09825,-0.344865 -0.743053,0.03473 -1.50313,-0.08743 -2.239492,0.05723 -0.18365,0.03608 -0.743804,0.213982 -0.930613,0.27168 -0.822751,0.234392 -1.451092,0.806452 -2.182683,1.209976 -1.738289,1.03635 -1.263047,0.580121 2.746605,2.456834 0.116866,0.0547 0.16207,-0.200832 0.243104,-0.301249 0.903304,-1.035487 1.63757,-2.199114 2.349482,-3.369776 0.372314,-0.734856 0.868294,-1.418468 1.152125,-2.197457 0.03939,-0.108096 0.29151,-1.007909 0.324411,-1.124328 0.271862,-1.555235 0.463788,-3.135985 0.451398,-4.716574 C 56.89406,80.035981 56.23571,78.824446 55.47628,77.704727 54.556763,76.33065 53.521657,75.040357 52.552361,73.702372 51.82553,72.664843 51.08998,71.628983 50.172675,70.75103 48.141868,69.139389 45.905919,67.701903 43.522698,66.682963 42.49221,66.294425 41.407384,66.067878 40.306392,66.144772 c -1.322938,0.254513 -2.349471,1.173813 -3.311441,2.057011 -0.977193,0.788341 -1.70103,1.824876 -2.257041,2.939592 -0.496369,0.901327 -1.018635,1.773121 -1.316778,2.763152 -0.288756,0.959802 -0.524381,1.940459 -0.836996,2.892652 -0.168635,0.487289 -0.08872,0.244452 -0.240128,0.728393 0,0 3.469169,1.899145 3.469169,1.899145 v 0 c 0.141761,-0.476435 0.06536,-0.234596 0.230237,-0.725197 0.310748,-0.957487 0.524913,-1.948145 0.844791,-2.904101 0.267724,-0.976222 0.783357,-1.826651 1.257991,-2.713923 0.535768,-1.074963 1.249434,-2.048553 2.181587,-2.816919 0.912125,-0.831373 1.889276,-1.694992 3.172876,-1.814139 1.067763,0.01098 2.112383,0.241512 3.092151,0.671605 1.502542,0.738799 0.995457,0.506111 -2.214912,-1.338437 -0.184071,-0.105759 0.366355,0.214879 0.544399,0.330491 0.554849,0.360288 1.095658,0.748067 1.615773,1.156512 0.977268,0.803021 1.693423,1.860556 2.431206,2.879122 0.957233,1.341173 2.006999,2.615247 2.918671,3.989345 0.250061,0.365125 0.538295,0.705596 0.759879,1.088671 0.422933,0.731178 0.721727,1.585928 0.85545,2.414153 0.06951,1.541682 -0.121417,3.093283 -0.404865,4.606983 -0.334828,1.177592 -0.741767,2.1971 -1.406173,3.240376 -0.698537,1.154367 -1.43034,2.300335 -2.355562,3.289488 -1.137163,1.221078 -0.410181,0.265213 2.953504,2.579685 0.02577,0.01773 0.03151,-0.055 0.05388,-0.07688 0.06695,-0.06551 0.331854,-0.243758 0.370073,-0.2677 0.109837,-0.0688 0.224055,-0.130355 0.336082,-0.195532 0.690938,-0.417881 1.323361,-0.928138 2.122545,-1.137603 1.013013,-0.286298 2.036038,-0.284797 3.084214,-0.240866 1.349944,0.02947 2.720948,0.05772 4.024823,0.446908 1.557724,0.619916 0.78677,0.345633 -2.296472,-1.460834 -0.170868,-0.10011 0.338648,0.20541 0.50709,0.309552 0.582236,0.359984 1.142902,0.746136 1.626087,1.236867 0.949293,0.957122 1.925314,1.904407 2.715077,3.001451 0.724987,0.850641 1.510443,1.875454 1.528299,3.033734 -0.294391,1.247201 -1.226341,2.151711 -2.011611,3.118891 -1.049136,1.19379 -2.222394,2.17198 -3.714713,2.77406 -1.498068,0.61493 -2.993376,1.28005 -4.643125,1.32758 -1.66601,0.0228 -3.357404,-0.0572 -4.973267,-0.49373 -1.210252,-0.3991 -2.396498,-0.85773 -3.504377,-1.49579 5.946463,3.46176 1.816134,1.15074 0.578652,0.12194 -1.279708,-0.74783 -2.559307,-1.49585 -3.839126,-2.24349 -0.95237,-0.55635 1.903868,1.1142 2.856781,1.66962 0.181136,0.10558 -0.363064,-0.2099 -0.541441,-0.32008 -0.189831,-0.11726 -0.370454,-0.24932 -0.562986,-0.36208 -1.306298,-0.76509 -2.618417,-1.52024 -3.932925,-2.271124 -0.939279,-0.536541 1.871474,1.085384 2.80721,1.628074 -2.009483,-1.15196 -3.814312,-2.749399 -6.191855,-2.69852 -1.002615,0.111876 -1.949802,0.335328 -2.589641,1.187087 -0.614583,1.210313 -0.635162,2.491443 -0.425445,3.819363 0.05573,0.31879 0.196516,1.42705 0.506055,1.6316 1.777918,1.17487 2.815675,2.16153 4.647136,2.38219 1.293763,0.0693 2.593415,0.0311 3.833927,-0.3908 1.100214,-0.36716 2.195867,-0.75787 3.257087,-1.22681 0.960091,-0.50856 1.490316,-1.08336 1.943118,-2.08644 0.77079,-2.07918 1.151483,-4.31016 1.132443,-6.526659 C 50.740892,95.527081 50.39805,93.5151 50.048369,91.50447 49.73652,89.207744 49.420946,86.916955 48.627368,84.723059 48.049537,82.840237 47.552644,80.917353 46.744204,79.117121 45.938818,77.424107 45.138999,75.728705 44.297981,74.052985 43.544614,72.397871 42.76766,70.756877 41.948642,69.13332 Z" />
      <path
         style="fill:#00ffff;stroke-width:0.264583"
         id="path21"
         d="m 70.308951,103.39093 c 0.83907,-0.86171 1.640348,-1.75774 2.451332,-2.64565 0.669489,-0.86144 1.212787,-1.818192 1.787277,-2.745599 0.785029,-1.236141 1.718572,-2.368068 2.483805,-3.616841 0.691136,-1.221018 0.779862,-2.649156 0.978675,-4.009781 0.276699,-1.948802 0.727551,-3.864258 1.014868,-5.812081 0.211354,-1.623865 0.294158,-3.261995 0.33198,-4.898163 0.143296,-1.878716 -0.243043,-3.686582 -0.679103,-5.499618 -0.668221,-2.953843 -1.832697,-5.75713 -3.286345,-8.404124 -2.256959,-3.688205 -3.81881,-4.072673 -7.772164,-6.228737 -1.343729,-0.433075 -2.442792,-0.477276 -3.653695,0.281287 -0.987457,0.764693 -1.352502,1.957088 -1.62538,3.125211 -0.223512,1.085043 -0.295146,2.191559 -0.318757,3.296546 -0.04046,1.194843 0.296188,2.363801 0.547468,3.523182 0.334682,1.423852 0.626438,2.856666 0.938644,4.285538 0.322839,1.254477 0.818131,2.454523 1.217813,3.685471 0.430237,1.552141 0.814875,3.116604 1.356699,4.634608 0.401034,1.178558 0.929772,2.305661 1.452361,3.433421 0.659178,1.464305 1.430698,2.873381 2.197926,4.282856 0.547764,0.975971 1.150316,1.906275 1.887746,2.748632 0.577088,0.650758 1.204968,1.216302 1.929829,1.694283 0.15227,0.09064 0.302723,0.184412 0.456813,0.271923 1.284251,0.729342 2.56925,1.457396 3.858104,2.178573 0.159412,0.0892 0.644523,0.343922 0.486429,0.252408 -0.975524,-0.564685 -1.955596,-1.121556 -2.939135,-1.672159 -0.13545,-0.07583 0.260152,0.16969 0.394423,0.247586 1.248402,0.724273 2.502214,1.439178 3.753323,2.158765 0.834721,0.257728 1.642623,0.594744 2.476699,0.856811 0.818491,0.23958 1.669846,0.294245 2.517322,0.31601 0.817989,0.09086 1.604134,-0.119139 2.403914,-0.245853 0.7326,-0.282462 1.436899,-0.67876 2.062322,-1.154975 0.739179,-0.594985 1.339286,-1.321946 1.787236,-2.155346 0.433631,-0.731393 0.65668,-1.535153 0.779865,-2.368812 0.177207,-0.659099 0.320582,-1.320361 0.396227,-1.998949 -0.0042,-0.777274 0.101814,-1.47089 0.42355,-2.179142 0.329245,-0.780302 0.817581,-1.472639 1.292915,-2.167314 0.06339,-0.111114 0.132588,-0.219112 0.190164,-0.333345 0.0566,-0.1123 0.100979,-0.230352 0.151906,-0.345337 0.03613,-0.08157 0.205811,-0.197602 0.125476,-0.236395 -3.65369,-1.764323 -3.142962,-2.950337 -3.651145,-1.2979 -0.509426,1.476512 -1.010419,2.956769 -1.416796,4.46527 -0.279341,1.296699 -0.61867,2.578576 -0.819782,3.890727 -0.122439,0.905729 -0.25269,1.619117 0.245155,2.425562 0.572852,0.760187 1.294371,1.37037 2.025671,1.969622 1.836187,1.491893 3.81376,2.599528 6.114344,2.848809 1.286584,0.17538 2.500534,-0.23808 3.70684,-0.634633 1.11529,-0.33251 2.19501,-0.821314 3.09808,-1.562436 0.57415,-0.595807 0.89314,-1.328267 1.11413,-2.11187 0.2454,-0.97732 0.42077,-1.976408 0.74063,-2.933385 0.42422,-1.081675 0.45389,-2.217388 0.48467,-3.36255 0.0186,-0.893437 0.0563,-1.785207 0.0118,-2.678451 -0.0166,-0.332938 -0.0889,-0.672968 -0.0769,-1.006004 -2.85206,-1.203754 -3.70625,-2.894341 -3.65122,-1.128395 0.0194,0.6237 0.12169,1.235112 0.26026,1.841624 0.20464,0.835734 0.65662,1.424091 1.33672,1.926543 2.18689,1.520214 3.48313,2.367285 5.81842,2.463458 1.10749,0.04519 2.19659,0.04442 3.28455,-0.177273 1.26714,-0.196379 2.49004,-0.557874 3.67826,-1.034042 1.22114,-0.585084 2.40219,-1.245373 3.58396,-1.904508 0.92061,-0.657556 1.89022,-1.279149 2.69056,-2.08408 0.32379,-0.432719 0.85998,-1.179455 0.55598,-1.766909 -0.0764,-0.147595 -0.20815,-0.259122 -0.31222,-0.388686 -2.50757,-1.957433 -4.4658,-2.631033 -7.21236,-3.40355 -0.91424,-0.261268 -1.85804,-0.353158 -2.80396,-0.391104 -1.22775,0.293513 -1.61189,1.612217 -1.88487,2.696485 -0.22196,1.152482 -0.26449,2.327674 -0.2838,3.497924 -0.007,0.820708 7.9e-4,1.641448 0.005,2.462154 0.0131,0.963782 0.0113,1.927646 0.009,2.891486 0.0319,0.787566 0.19556,1.537792 0.58861,2.222338 0.63297,0.867712 1.48157,1.538907 2.30181,2.219444 1.94076,1.669738 4.14129,2.782753 6.37897,4.045035 0.83914,0.328125 1.73594,0.345175 2.62336,0.355115 1.15186,0.0631 2.27665,-0.10416 3.37385,-0.444558 1.15887,-0.407394 2.30236,-0.869603 3.32385,-1.558152 0.64744,-0.549442 1.25115,-1.149244 1.81648,-1.782172 0,0 -3.37732,-2.042986 -3.37732,-2.042986 v 0 c -0.54075,0.608425 -1.11132,1.193067 -1.74903,1.701165 -1.01249,0.636958 -2.11355,1.105681 -3.25395,1.464821 -1.08555,0.290716 -2.19057,0.409265 -3.31526,0.337875 -0.86461,-0.03511 -1.73042,-0.09945 -2.52086,-0.488772 6.10946,3.590219 1.5735,1.020857 0.33758,-0.120828 -0.80696,-0.66422 -1.63328,-1.310407 -2.31486,-2.104271 -0.47594,-0.586427 -0.61085,-1.275487 -0.6995,-2.013907 -0.003,-0.962949 -0.005,-1.925894 4e-5,-2.88884 -0.005,-0.820669 -0.014,-1.641301 -0.0177,-2.461977 0.003,-1.14494 0.0197,-2.296184 0.22522,-3.426201 0.21609,-0.906962 0.49531,-2.155759 1.61772,-2.2226 0.92332,0.0568 1.84015,0.180231 2.72927,0.446391 0.64087,0.184029 1.2944,0.352989 1.92324,0.575377 0.23298,0.08239 0.89522,0.409543 0.68925,0.273005 -1.46842,-0.973408 -3.93768,-2.259537 -2.16381,-1.326642 0.12194,0.071 0.25408,0.126817 0.36581,0.212997 0.45026,0.347297 -0.0847,1.074677 -0.31728,1.370838 -0.78002,0.776139 -1.71694,1.379985 -2.61863,2.004087 -1.15891,0.668853 -2.33547,1.306136 -3.55708,1.854954 -1.17614,0.449024 -2.38221,0.78991 -3.63014,0.973754 -1.07692,0.165314 -2.16163,0.146711 -3.24817,0.08682 -2.08186,-0.180089 -3.9355,-1.51379 1.03749,1.312968 -0.79124,-0.459406 -1.13147,-0.787503 -1.45573,-1.65517 -0.79304,-3.079033 0.90665,-1.490294 -3.86223,-3.929872 0.0402,-0.01868 0.0911,-0.08915 0.12055,-0.05605 0.076,0.0854 0.15844,0.768728 0.16306,0.815208 0.0878,0.88443 0.0372,1.769594 0.0174,2.65589 -0.0517,1.096182 -0.0925,2.196748 -0.48492,3.235978 -0.31987,0.962335 -0.49212,1.968056 -0.7408,2.949959 -0.21163,0.696576 -0.47233,1.374574 -0.99801,1.901163 -0.882327,0.690436 -1.914691,1.146445 -2.98529,1.463707 -1.191665,0.367813 -2.383539,0.694545 -3.638833,0.472292 -1.958952,-0.296132 -3.727662,-1.593017 1.112525,1.235919 0.138821,0.08114 -0.271772,-0.171921 -0.40766,-0.257881 -0.736197,-0.569799 -1.451104,-1.157087 -2.055323,-1.868848 -0.10151,-0.11498 -0.364701,-0.387556 -0.426418,-0.548076 -0.190542,-0.495594 0.05685,-1.101262 0.03797,-1.607146 0.171783,-1.306142 0.489577,-2.581944 0.761167,-3.869689 0.392101,-1.499942 0.892968,-2.969147 1.446233,-4.417092 0.636879,-1.684301 0.32349,-0.433959 -3.24336,-2.640526 -0.02569,-0.0159 -0.02593,0.05461 -0.03743,0.08255 -0.05457,0.132421 -0.171278,0.440176 -0.227875,0.55581 -0.0515,0.105209 -0.114472,0.204401 -0.171709,0.306602 -0.482169,0.715478 -0.97762,1.429565 -1.321731,2.225222 -0.349232,0.743138 -0.523219,1.464144 -0.493239,2.289363 -0.06559,0.676452 -0.198462,1.336397 -0.386162,1.989971 -0.09921,0.792694 -0.292368,1.556504 -0.708639,2.248924 -0.413499,0.78691 -0.988671,1.461341 -1.69413,2.005372 -0.595595,0.422823 -1.259697,0.80431 -1.968188,0.994376 -0.779682,0.13517 -1.552297,0.276492 -2.348753,0.185584 -0.829178,-0.04659 -1.658909,-0.12877 -2.449248,-0.402474 -0.817915,-0.284887 -1.648042,-0.554368 -2.434746,-0.914741 10.072867,5.864329 -8.580366,-5.042773 1.195133,0.723064 0.149267,0.08804 -0.302249,-0.169632 -0.453371,-0.254447 -0.74126,-0.445971 -1.402538,-0.943301 -1.971596,-1.601433 -0.787363,-0.792464 -1.384718,-1.719125 -1.956001,-2.675313 -0.794025,-1.38321 -1.539708,-2.797678 -2.200288,-4.250076 -0.513977,-1.126641 -1.054934,-2.243342 -1.474743,-3.409659 -0.568028,-1.50399 -0.975479,-3.057068 -1.361046,-4.616768 -0.377539,-1.230021 -0.85299,-2.423112 -1.229288,-3.652901 -0.320985,-1.427268 -0.609404,-2.860929 -0.941808,-4.28566 -0.247941,-1.127389 -0.559086,-2.27235 -0.564878,-3.428857 0.0199,-1.082008 0.05624,-2.16799 0.2647,-3.23342 0.239715,-1.060249 0.547664,-2.175184 1.471644,-2.842072 1.159984,-0.611312 2.213113,-0.45352 3.417901,-0.003 -0.873689,-0.534085 -1.754219,-1.05713 -2.621063,-1.602253 -0.242504,-0.152501 0.510045,0.263818 0.747511,0.424055 1.292448,0.872125 2.25239,2.121506 3.078999,3.422185 1.495766,2.597756 2.685383,5.363845 3.327006,8.303418 0.403529,1.77572 0.803825,3.542255 0.651838,5.378556 -0.02215,1.627365 -0.06574,3.257375 -0.274323,4.873551 -0.271851,1.949418 -0.736962,3.858159 -1.019339,5.805061 -0.211825,1.302827 -0.313134,2.673263 -0.934633,3.860213 -0.746802,1.258247 -1.684197,2.383626 -2.477587,3.611517 -0.577271,0.899544 -1.121545,1.825763 -1.758455,2.682391 -0.805516,0.887489 -1.594866,1.792607 -2.470608,2.612277 z" />
      <path
         style="fill:#00ffff;stroke-width:0.264583"
         id="path22"
         d="m 79.793938,172.39327 c 0.835906,1.64239 1.741193,3.24629 2.564942,4.89552 1.192969,2.20461 2.136754,4.53851 3.038295,6.87471 1.241224,3.14374 2.210715,6.36949 3.101549,9.62618 0.976685,3.48566 1.718355,7.02461 2.335996,10.58906 0.594021,3.58099 0.725529,7.21413 0.808945,10.83618 0.06948,2.89085 -0.209609,5.75847 -0.738283,8.59617 -0.461902,1.73107 -0.824831,3.48497 -1.368523,5.19314 -0.376822,1.39031 -0.972341,2.7166 -1.766724,3.91774 -0.452884,0.79965 -1.080841,1.30201 -2.013651,1.32249 -1.00902,-0.20856 -1.902105,-0.80734 -2.78367,-1.32148 5.723387,3.37294 2.183876,1.35885 1.055452,0.23587 -0.604994,-0.6158 -0.706149,-1.43786 -0.783405,-2.25767 -0.0907,-1.02631 -0.01558,-1.72038 0.879459,-2.31318 0.870014,-0.38762 1.859322,-0.3616 2.794974,-0.37781 0.801838,-0.0895 1.559777,0.14624 2.339803,0.2768 1.117629,0.79299 3.001854,1.66201 -2.540114,-1.4056 -0.114184,-0.0632 0.210849,0.15388 0.315071,0.23243 0.403722,0.30428 0.345586,0.26354 0.735439,0.58538 0.708675,0.59149 1.418473,1.18141 2.129514,1.77003 0.689142,0.54061 1.408732,1.03658 2.133957,1.52686 1.834627,1.27396 3.758925,2.4469 5.857844,3.21878 0.766945,0.2607 1.575183,0.31528 2.377982,0.34653 0.96516,0.0939 1.8827,-0.13128 2.80554,-0.37499 0.77419,-0.2459 1.4545,-0.61939 2.13562,-1.04747 0.68562,-0.28672 1.12358,-0.83886 1.44962,-1.48478 0.39036,-0.57351 0.52829,-1.25574 0.80755,-1.87971 0.37201,-0.73728 0.71462,-1.47165 0.91728,-2.2746 0.1658,-0.77102 0.18202,-1.56175 0.19422,-2.34699 0.092,-0.76788 -0.10096,-1.43726 -0.37427,-2.14039 -0.83357,-2.49517 -0.30705,-1.38972 -4.1918,-3.17323 -0.36613,0.97881 -0.46218,2.05482 -0.62069,3.08687 -0.1473,1.20131 -0.21586,2.41041 -0.24398,3.61983 -0.0883,0.93749 0.16423,1.78692 0.60152,2.60275 0.57619,0.94378 1.43635,1.64345 2.32503,2.27706 1.93103,1.21768 3.80353,2.75481 6.10545,3.06758 1.06237,0.0915 2.13007,0.0821 3.19543,0.0819 1.39627,-0.13686 2.73084,-0.57271 4.03774,-1.06343 1.2554,-0.41019 2.37137,-1.10988 3.45038,-1.85474 0.89014,-0.82647 1.20734,-1.91428 1.38391,-3.07422 0.18237,-1.12758 -0.12961,-2.17594 -0.49976,-3.22432 -0.52749,-1.26776 -1.16264,-2.49243 -1.80412,-3.70664 -1.12297,-2.12276 -3.37205,-2.87462 -5.40504,-4.04529 -0.76744,-0.30526 -1.59339,-0.33986 -2.4082,-0.36058 -0.89615,-0.0371 -1.79424,0.0824 -2.65681,0.32364 -0.97249,0.25401 -1.85231,0.75802 -2.73601,1.22131 -0.16453,0.076 -0.33395,0.14221 -0.49357,0.22802 -0.32499,0.17473 -0.62494,0.39307 -0.94666,0.57375 -0.39864,0.22389 -0.82035,0.38787 -1.22418,0.60128 -0.7313,0.39552 -1.38583,0.90636 -1.9049,1.55609 -0.31081,0.43017 -0.41417,0.79585 -0.19606,1.28077 0,0 3.65796,1.54104 3.65796,1.54104 v 0 c -0.43196,-0.20096 -0.31129,-0.42914 -0.0688,-0.79087 0.4948,-0.60069 1.12379,-1.06563 1.81523,-1.42102 0.89262,-0.45648 1.76107,-0.9496 2.64852,-1.41478 0.86473,-0.45244 1.74256,-0.9068 2.69812,-1.13472 0.85363,-0.18927 1.72022,-0.29695 2.596,-0.22864 0.78964,0.0416 1.58324,0.11909 2.29414,0.49784 -5.87196,-3.44607 -2.82743,-1.89293 -1.84084,-0.86834 0.32045,0.33279 0.34969,0.43411 0.58394,0.82875 0.64343,1.19775 1.29887,2.39633 1.82311,3.65152 0.35677,0.99324 0.76069,1.97416 0.58489,3.05478 -0.13554,1.05491 -0.37823,2.06403 -1.21382,2.79628 -1.05634,0.72452 -2.15254,1.38551 -3.37927,1.78462 -1.28567,0.46622 -2.60484,0.88174 -3.98265,0.93281 -1.05365,5.3e-4 -2.1139,0.0127 -3.159,-0.14009 -0.38797,-0.0838 -0.48106,-0.0893 -0.84898,-0.22479 -0.14227,-0.0524 -0.54889,-0.25444 -0.41977,-0.17501 5.41369,3.33023 3.16758,1.8561 1.97032,1.1401 -0.89415,-0.57888 -1.74712,-1.23562 -2.37391,-2.10752 -0.46835,-0.73462 -0.7841,-1.52429 -0.70751,-2.41304 0.0238,-1.19497 0.0592,-2.39202 0.21395,-3.57862 0.1424,-0.95939 0.26452,-1.94632 0.5531,-2.87009 -4.65788,-2.74285 -3.43575,-2.8446 -2.80119,-0.54709 0.24656,0.67484 0.5653,1.25932 0.4428,2.00971 -0.007,0.75801 -0.0121,1.52123 -0.15197,2.26898 -0.18032,0.78484 -0.51478,1.49341 -0.8818,2.20713 -0.28859,0.61654 -0.424,1.29167 -0.80438,1.86592 -0.29667,0.59884 -0.72398,1.02227 -1.33755,1.30179 -0.64337,0.41041 -1.32134,0.72908 -2.053961,0.9538 -0.90429,0.22762 -1.809681,0.37283 -2.746055,0.26985 -0.782802,-0.0512 -1.564553,-0.14539 -2.298025,-0.44289 -0.285671,-0.11582 -0.521796,-0.20865 -0.803828,-0.33495 -0.134528,-0.0602 -0.526712,-0.26362 -0.400452,-0.18756 5.433284,3.27315 3.259113,1.96831 2.123699,1.17771 -0.727689,-0.48311 -1.432108,-0.98189 -2.147321,-1.48012 -0.685303,-0.61801 -1.428242,-1.17487 -2.13477,-1.77005 -1.529913,-1.41144 -3.374181,-2.57294 -5.323618,-3.27882 -0.786497,-0.14829 -1.566521,-0.28024 -2.372225,-0.20112 -0.998339,0.0364 -2.053089,0.042 -2.935597,0.56922 -0.926584,0.72715 -1.16954,1.50112 -1.069445,2.66718 0.05317,0.87859 0.122772,1.76939 0.653028,2.50884 0.194662,0.18961 0.366578,0.402 0.564727,0.58797 1.444511,1.35572 3.807849,1.75545 5.090652,3.15888 0.922637,0.51383 1.854565,1.1523 2.949715,1.13496 0.992442,-0.19411 1.697604,-0.7302 2.181037,-1.6278 0.791258,-1.24442 1.416048,-2.5941 1.792171,-4.02277 0.553832,-1.72549 0.92092,-3.49718 1.361081,-5.25378 0.516818,-2.87541 0.765865,-5.77941 0.700418,-8.70399 -0.0894,-3.63463 -0.197213,-7.28151 -0.76993,-10.8789 -0.614135,-3.57991 -1.37628,-7.12725 -2.34157,-10.63057 -0.865127,-3.2609 -1.810544,-6.49282 -3.039602,-9.63861 -0.872011,-2.34315 -1.791092,-4.69066 -2.982865,-6.89101 -0.803487,-1.62712 -1.666423,-3.22136 -2.490018,-4.83723 z" />
      <path
         style="fill:#00ffff;stroke-width:0.264583"
         id="path23"
         d="m 118.52896,216.14638 c 0.29783,1.41998 0.58166,2.84389 0.81027,4.27682 0.22654,1.76584 0.47743,3.52995 0.81159,5.27885 0.27475,1.11875 0.39613,2.26912 0.6874,3.38308 0.26852,0.84567 0.86099,1.54537 1.432,2.20816 1.6234,1.80504 3.91443,2.90459 6.21893,3.59587 1.07596,0.24682 2.36746,0.56203 3.41784,0.0169 0.24942,-0.12944 0.45996,-0.32296 0.68994,-0.48444 1.62511,-1.23633 2.39921,-3.03934 2.9001,-4.95621 0.28435,-1.30843 0.35856,-2.64638 0.37906,-3.98102 0.0333,-1.44779 -0.41547,-2.84787 -0.81071,-4.22387 -0.9348,-2.98664 -2.03976,-2.88711 -5.18482,-4.61414 -0.13385,0.0786 -0.28629,0.13172 -0.40156,0.23565 -0.9628,0.86812 -0.80366,2.61192 -0.86694,3.74997 0.005,1.62167 -0.25675,3.31946 0.0915,4.92688 0.0578,0.2668 0.16204,0.52137 0.24306,0.78205 0.73273,1.41867 1.82358,2.62174 3.12891,3.53166 2.1871,1.33848 4.22686,2.68373 6.73646,3.13199 1.58441,0.2541 3.18318,0.18403 4.76666,-0.0249 1.6971,-0.3189 3.08344,-1.26246 4.48077,-2.21413 1.22822,-0.85811 2.48282,-1.70414 3.35611,-2.94105 0.70305,-1.18819 0.50957,-2.53423 0.26518,-3.82524 -0.36062,-1.59746 -1.05381,-3.05995 -1.83423,-4.48739 -0.75765,-1.3671 -1.62316,-2.65833 -2.83175,-3.6611 -2.98245,-2.05794 -3.72535,-2.72487 -6.65422,-2.50497 -1.38881,0.0642 -2.73428,0.41256 -4.08029,0.72979 -1.1131,0.28606 -1.70961,0.58301 -2.43893,1.47543 -0.78144,1.10262 -1.38393,2.32152 -1.78909,3.60847 -0.139,0.60753 -0.31447,1.20505 -0.4685,1.80876 0,0 3.45653,1.86958 3.45653,1.86958 v 0 c 0.14768,-0.59907 0.3171,-1.19226 0.44538,-1.79602 0.38312,-1.23902 0.95356,-2.41854 1.73012,-3.46192 0.6572,-0.75141 1.33014,-1.04112 2.29852,-1.27 1.32435,-0.32898 2.65794,-0.6371 4.029,-0.67944 0.62081,-0.0245 1.20884,-0.0512 1.81799,0.099 0.15666,0.0386 0.59611,0.23694 0.46029,0.14983 -1.76557,-1.13242 -4.15014,-2.37574 -2.45291,-1.48347 1.27901,0.90858 2.15989,2.17107 2.92769,3.52681 0.77457,1.39619 1.47774,2.81869 1.87395,4.37519 0.2533,1.17757 0.46835,2.42355 -0.14674,3.52949 -0.8285,1.20419 -2.05852,2.0127 -3.23965,2.84244 -1.36706,0.90465 -2.72812,1.80199 -4.38609,2.05757 -1.56953,0.17675 -3.15234,0.21096 -4.71125,-0.0895 -0.55291,-0.12354 -0.69824,-0.13846 -1.2274,-0.32435 -1.37349,-0.4825 -4.30059,-2.23075 1.26829,0.9827 -1.34453,-0.8094 -2.41581,-1.96947 -3.24493,-3.30018 -0.0923,-0.23767 -0.21127,-0.46661 -0.27674,-0.71299 -0.41133,-1.54791 -0.15198,-3.30471 -0.16649,-4.87869 0.0406,-0.62508 0.0101,-2.91582 0.72748,-3.31839 0.0705,-0.0395 0.1611,-0.0131 0.24165,-0.0196 -1.01199,-0.61242 -2.01755,-1.23559 -3.03596,-1.83727 -0.12672,-0.0749 0.24914,0.15893 0.35967,0.25611 0.62129,0.54629 0.94801,1.34371 1.21305,2.10439 0.38693,1.33992 0.84094,2.69191 0.82174,4.10393 0.003,1.31165 -0.0324,2.62907 -0.29352,3.91942 -0.44821,1.83847 -1.15742,3.56808 -2.76106,4.69903 -0.21395,0.12537 -0.4135,0.2794 -0.64184,0.37612 -1.03571,0.43866 -2.25523,0.062 -3.27643,-0.19564 -1.62288,-0.53865 -3.05204,-1.5032 1.61901,1.25169 0.13093,0.0772 -0.2623,-0.15469 -0.38485,-0.24461 -0.33387,-0.24498 -0.4383,-0.3789 -0.72727,-0.6777 -0.56797,-0.6162 -1.13134,-1.28164 -1.49387,-2.03844 -0.32718,-1.11047 -0.46948,-2.25946 -0.75281,-3.38274 -0.36558,-1.73666 -0.58976,-3.50107 -0.81426,-5.26071 -0.21248,-1.42231 -0.49043,-2.83288 -0.75695,-4.24567 z" />
      <path
         style="fill:#00ffff;stroke-width:0.264583"
         id="path24"
         d="m 146.22734,216.17095 c 0.75923,2.1342 1.35326,4.31726 1.89072,6.51619 0.69354,2.44188 1.25577,4.89627 1.58291,7.41414 0.29159,2.60718 0.32726,5.23206 0.35547,7.85233 0.0706,2.25008 -0.0353,4.49431 -0.38153,6.71808 -0.31689,1.48064 -0.30991,3.17621 -1.28598,4.41042 -0.93251,0.6684 -2.14329,0.69588 -3.23345,0.93811 -0.52946,0.0752 -1.07623,0.35344 -1.62135,0.20049 -0.14033,-0.0394 -0.51385,-0.27545 -0.38551,-0.20636 3.15529,1.69841 3.71324,2.49643 2.67083,1.2064 -0.61587,-1.10008 -0.84922,-2.34808 -1.01717,-3.58271 -0.18066,-1.09617 -0.0858,-2.0262 0.2877,-3.06065 0.59143,-1.22797 1.35824,-2.36794 2.07015,-3.52964 1.28733,-2.31621 2.67837,-4.57243 4.13931,-6.78251 1.21954,-1.78262 2.73207,-3.32761 4.1027,-4.98817 0.17275,-0.21187 0.35335,-0.41757 0.51824,-0.6356 0.23639,-0.31256 0.4567,-0.63695 0.68505,-0.95543 0.2485,-0.32507 0.49792,-0.64944 0.74551,-0.9752 0.20533,-0.27016 1.17963,-1.54588 1.37852,-1.87015 0.1978,-0.32247 0.34942,-0.67107 0.52413,-1.0066 0.63169,-1.68496 0.95392,-3.52428 0.72186,-5.3182 -0.16867,-1.05869 -0.73305,-1.95949 -1.38786,-2.78309 -1.12289,-1.28792 -2.57613,-1.85105 -4.24879,-2.61988 -0.37365,-0.17174 -0.93628,0.88251 -1.05545,1.06649 -0.6647,1.37318 -0.79536,2.89851 -0.89517,4.39774 -0.0412,1.25766 0.11987,2.52009 0.99722,3.47007 3.49079,2.22692 3.20728,2.36352 6.31375,2.36781 1.34972,-0.007 2.69942,-0.0157 4.04914,-0.0231 1.21312,0.0132 2.41656,0.0124 3.62134,-0.13361 1.2807,-0.17577 2.39506,-0.79653 3.52895,-1.37227 1.36201,-0.77863 2.35538,-2.05155 3.37195,-3.22026 0.89235,-1.14999 1.6982,-1.99873 1.3675,-3.52165 -0.47157,-1.13219 -1.60688,-1.78378 -2.56987,-2.46619 -1.97448,-1.37885 -4.10033,-2.51016 -6.329,-3.40335 -0.97383,-0.54979 -2.05187,-0.69669 -3.14524,-0.80327 -1.12311,-0.15403 -2.20336,0.002 -3.28466,0.29424 -1.07728,0.3027 -2.07613,0.78052 -3.01735,1.37829 -0.80273,0.49371 -1.62874,0.99231 -2.30868,1.65045 -0.0931,0.10323 -0.1863,0.20646 -0.27945,0.3097 0,0 3.37803,2.0493 3.37803,2.0493 v 0 c 0.0884,-0.0953 0.17675,-0.19067 0.26513,-0.286 0.67277,-0.62674 1.47324,-1.10888 2.25192,-1.59122 0.92407,-0.56193 1.90343,-1.01552 2.95827,-1.27553 1.05109,-0.26537 2.11002,-0.33965 3.1892,-0.18532 1.08148,0.13441 2.11255,0.3848 3.08438,0.89653 0.47484,0.20317 0.94991,0.40821 1.4188,0.62488 0.15839,0.0732 0.62108,0.31704 0.47182,0.22668 -6.75413,-4.08882 -3.04794,-1.78966 -2.2973,-1.32259 0.66905,0.47113 1.89111,1.22339 2.40742,1.8265 0.0994,0.11608 0.16213,0.25905 0.24319,0.38858 0.12281,0.31182 0.23421,0.48245 0.19468,0.83254 -0.10355,0.91702 -0.8099,1.66662 -1.32369,2.37164 -0.9883,1.13677 -1.99301,2.32941 -3.32424,3.07384 -1.10135,0.56609 -2.20728,1.11532 -3.45821,1.24977 -1.19499,0.12628 -2.39212,0.099 -3.5926,0.10266 -1.34644,0.01 -2.69291,0.0332 -4.03941,0.0212 -0.58737,-0.0135 -1.18817,-0.005 -1.76922,-0.10897 -1.28943,-0.23005 -3.54414,-2.09689 2.28045,1.53832 -1.02856,-0.73813 -1.1963,-1.96374 -1.18822,-3.16566 0.0875,-1.42821 0.18815,-2.89457 0.82522,-4.20182 0.0802,-0.11653 0.33117,-0.54775 0.52181,-0.62703 0.0784,-0.0326 0.3256,0.0594 0.25423,0.0135 -5.62157,-3.61679 -3.51313,-2.26952 -2.49773,-1.37279 0.63821,0.78543 1.2949,1.58398 1.49169,2.60902 0.35273,1.70705 0.0141,3.49862 -0.55202,5.12409 -0.16616,0.32011 -0.31154,0.65189 -0.49848,0.96032 -0.95297,1.57234 -2.25489,2.92459 -3.34657,4.39586 -1.34492,1.69403 -2.8458,3.26315 -4.07269,5.05063 -1.45025,2.22023 -2.82487,4.48681 -4.16206,6.77705 -0.75911,1.16424 -1.58151,2.30591 -2.1693,3.56905 -0.43447,1.175 -0.54353,1.97376 -0.37047,3.23147 0.16638,1.28243 0.41026,2.55923 0.93461,3.75001 1.02471,1.71354 0.28728,0.65105 4.04678,2.79108 0.13626,0.0776 0.30404,0.0858 0.46051,0.0958 0.56704,0.0362 1.10751,-0.18764 1.65676,-0.27947 1.18043,-0.24454 2.4675,-0.30801 3.39439,-1.16669 0.11646,-0.15967 0.2528,-0.30659 0.34939,-0.47901 0.69732,-1.24472 0.65345,-2.77843 0.97469,-4.12916 0.36705,-2.24614 0.46431,-4.51025 0.39284,-6.78523 -0.0227,-2.63692 -0.0761,-5.27806 -0.35812,-7.90223 -0.29616,-2.52848 -0.80862,-5.00296 -1.53954,-7.44316 -0.53515,-2.1779 -1.11742,-4.34229 -1.78627,-6.48277 z" />
      <path
         style="fill:#00ffff;stroke-width:0.264583"
         id="path25"
         d="m 164.08286,212.20331 c 1.23244,-0.70963 2.48754,-1.38132 3.72788,-2.07865 1.12155,-0.61213 2.21641,-1.26306 3.29946,-1.94183 1.02175,-0.61023 2.09405,-1.12001 2.99517,-1.90577 0.80748,-0.70578 1.85118,-1.56885 1.85996,-2.72836 -0.54043,-1.56822 -3.11256,-3.34167 -4.36555,-1.96625 -0.2239,0.24578 -0.2987,0.46323 -0.43796,0.759 -0.49054,1.44928 0.0333,2.94612 0.49116,4.3326 0.40539,1.14022 0.92493,2.22209 1.65606,3.18744 0.66698,0.72431 1.48977,1.2633 2.31185,1.79191 1.96103,1.13663 3.85849,2.52333 6.03103,3.24773 1.15563,0.30612 2.33807,0.45033 3.52668,0.5533 1.22894,0.14477 2.42661,0.0314 3.60357,-0.33409 0.49491,-0.2374 1.19715,-0.43815 1.55361,-0.89731 0.30331,-0.39071 0.53593,-0.83211 0.78019,-1.26221 0.78753,-1.38674 1.25894,-2.41393 1.96575,-3.86178 0.73973,-1.60287 1.0105,-2.14962 1.67387,-3.73202 0.47295,-1.12817 1.12262,-2.433 1.01235,-3.70563 -0.024,-0.27686 -0.14753,-0.53585 -0.22129,-0.80377 -0.1614,-0.21751 -0.29612,-0.45763 -0.4842,-0.65252 -0.17876,-0.18523 -0.385,-0.34699 -0.60668,-0.47785 -2.93761,-1.73409 -3.43887,-2.25321 -6.06957,-2.73162 -1.29588,-0.21849 -2.61139,-0.25756 -3.9224,-0.28323 -1.21392,-0.0167 -2.4249,0.23305 -3.59477,0.54015 -0.93074,0.19954 -1.77359,0.61935 -2.55776,1.14559 -0.83668,0.58243 -1.60487,1.27613 -2.39692,1.92557 -0.38453,0.29465 -0.61927,0.72107 -0.9405,1.07304 -1.12283,1.23026 -1.41886,-0.22257 3.27679,1.95427 0.70721,-1.15309 1.40566,-2.31323 2.23783,-3.38156 0.66323,-0.80533 1.27721,-1.71564 2.21085,-2.22449 0.82787,-0.31275 1.74063,-0.26505 2.61249,-0.27426 0.98659,0.0296 1.99101,-0.16438 2.80299,-0.74133 0.51497,-0.5361 0.75047,-1.26508 1.06617,-1.92602 0.29226,-0.66099 0.41927,-1.377 0.40708,-2.09657 -0.10093,-0.66285 -0.21469,-1.32105 -0.27199,-1.98979 0.0805,-0.63682 -0.21788,-1.27388 -0.20477,-1.89768 0.0818,0.0623 0.0776,0.18482 0.14613,0.25467 0.0377,0.0384 0.59719,0.34487 0.58296,0.33684 -3.15766,-1.78185 -3.90936,-2.30253 -2.49835,-1.35789 1.28519,0.74179 2.57037,1.48358 3.85555,2.22538 0.16447,0.0917 0.65648,0.36914 0.49341,0.27502 -0.96005,-0.5541 -3.85728,-2.1861 -2.88434,-1.65497 1.30321,0.71143 2.57201,1.48472 3.87532,2.19595 0.40411,0.22053 0.84462,0.36749 1.2572,0.57172 -5.67003,-3.24307 -1.64576,-1.00158 -0.41329,-0.0787 1.55572,1.3228 3.33787,2.30785 5.19793,3.17193 0.42763,0.0612 1.05688,0.71154 1.49034,0.59943 0.0674,-0.0174 0.10344,-0.0933 0.15517,-0.13996 0.0349,-0.11426 0.10054,-0.22337 0.10462,-0.34277 0.0156,-0.4563 -1.11876,-1.40107 -1.40984,-1.67547 -1.92557,-1.90067 -4.44835,-2.98513 -6.76456,-4.3275 -1.0296,-0.57896 -2.19709,-0.8785 -3.34169,-1.146 -0.7758,-0.13876 -1.5536,-0.4599 -2.22575,-0.87284 4.7426,2.74796 3.05631,2.24302 2.01783,0.19693 -0.39837,-0.92045 -0.58486,-1.9093 -0.57822,-2.90893 0.0923,-1.05026 0.54773,-1.99595 0.9846,-2.93811 0.44806,-1.10029 1.04176,-2.05744 1.93792,-2.84059 1.05195,-0.72535 2.28201,-0.6924 3.44661,-0.2927 0.18187,0.0917 0.36374,0.18348 0.54561,0.27523 -0.94896,-0.53844 -1.88106,-1.10772 -2.84687,-1.6153 -0.17034,-0.0895 0.313,0.22576 0.45337,0.35739 0.38189,0.35815 0.60434,0.77771 0.81673,1.24576 0.2769,0.94039 0.64722,1.86048 1.20884,2.66727 1.47313,1.4506 3.37477,2.64072 5.42979,2.97396 0.78588,-0.01 1.42215,-0.49316 2.06807,-0.88058 1.02395,-0.45891 1.40361,-0.77753 1.7454,-1.86304 0.2209,-0.97075 0.32447,-1.96721 0.20017,-2.95677 -0.0301,-0.34823 -0.14024,-0.67494 -0.25839,-1.00046 0,0 -3.5942,-1.66723 -3.5942,-1.66723 v 0 c 0.12508,0.3036 0.28305,0.59072 0.30378,0.92618 0.16772,0.93677 0.10021,1.87669 -0.10507,2.80655 -0.31317,1.04473 -0.68015,1.1264 -1.6088,1.60914 -0.58552,0.35346 -1.18455,0.76434 -1.90233,0.63844 -0.30582,-0.0757 -0.42292,-0.0921 -0.71471,-0.21456 -0.11585,-0.0486 -0.44667,-0.22961 -0.33884,-0.16511 5.45812,3.26493 3.52366,2.15155 2.40545,1.34613 -0.64477,-0.71031 -1.02434,-1.64685 -1.26072,-2.56802 -0.8929,-2.42984 -3.24719,-3.39482 -5.65768,-4.30786 -1.29717,-0.29045 -2.58164,-0.22909 -3.67485,0.61519 -0.91029,0.84026 -1.55224,1.82739 -2.02283,2.97423 -0.46255,0.98874 -0.93127,1.97991 -1.06672,3.07671 -0.0478,1.04854 0.13186,2.08823 0.50082,3.07225 0.92089,2.20462 2.11453,2.65672 4.64971,3.91905 0.73099,0.33679 1.46306,0.66982 2.26913,0.78143 1.1257,0.29051 2.25953,0.6076 3.25961,1.21933 1.40402,0.78289 1.29355,0.72713 -2.11883,-1.26223 -0.1927,-0.11234 0.38306,0.22865 0.57286,0.34583 0.59864,0.36962 0.58811,0.34471 1.12075,0.81278 0.17543,0.15415 0.34144,0.31871 0.51216,0.47807 0.0785,0.0727 1.44568,1.41397 1.46115,1.41541 0.0592,0.006 0.0964,-0.0699 0.14454,-0.10478 0.007,-0.0249 0.0407,-0.0582 0.0209,-0.0748 -0.0551,-0.0462 -0.13571,-0.0482 -0.20172,-0.0768 -0.41519,-0.18008 -0.80515,-0.41559 -1.23055,-0.5739 -1.40793,-0.65873 -0.34047,-0.17114 2.77657,1.66201 0.0967,0.0569 -0.20043,-0.10185 -0.29397,-0.16376 -0.37107,-0.24563 -0.21637,-0.19708 -0.57431,-0.48947 -0.11061,-0.0904 -0.23176,-0.16697 -0.34764,-0.25046 -1.89227,-1.57324 -4.32952,-2.39858 -6.30497,-3.82664 -0.22439,-0.10612 -0.44821,-0.21344 -0.67317,-0.31835 -0.19763,-0.0922 -0.77994,-0.38769 -0.59459,-0.27281 0.93962,0.58236 3.82442,2.21925 2.86086,1.67742 -1.29103,-0.72596 -2.56086,-1.489 -3.84337,-2.2299 -0.16296,-0.0941 -0.65517,-0.37067 -0.49298,-0.2752 0.95334,0.56119 1.91104,1.11493 2.86656,1.6724 -1.61027,-1.00898 -1.11495,-0.70339 -4.24454,-2.5462 -0.4151,-0.24443 -0.81703,-0.45244 -1.15904,0.008 -0.16109,0.60963 0.30923,1.34916 0.17532,2.00502 0.0447,0.66805 0.11891,1.33277 0.26867,1.98656 0.0903,0.64888 -0.0685,1.31434 -0.30914,1.91747 -0.28073,0.59551 -0.48901,1.2674 -0.95182,1.74574 -0.79676,0.49089 -1.73916,0.58667 -2.65991,0.56509 -0.92779,0.0172 -1.9015,-0.009 -2.74417,0.43544 -0.92657,0.60315 -1.57326,1.51655 -2.25528,2.37095 -0.83614,1.10682 -1.56414,2.28772 -2.32521,3.44621 4.21872,2.97374 2.38954,3.00796 4.445,0.9952 0.78287,-0.64276 1.5471,-1.32352 2.39511,-1.87632 0.76057,-0.48385 1.56527,-0.87241 2.45612,-1.05555 1.15917,-0.27699 2.3454,-0.49258 3.54238,-0.4491 1.29362,0.0279 2.59134,0.0831 3.8656,0.32624 0.58079,0.12399 0.83361,0.1626 1.39644,0.34255 0.20795,0.0665 0.79633,0.34647 0.61524,0.22453 -0.87071,-0.58635 -1.79729,-1.08513 -2.6968,-1.62628 -0.21531,-0.12952 0.44441,0.23904 0.64419,0.39143 0.19919,0.15195 0.36401,0.34434 0.54601,0.51651 0.10166,0.22835 0.25785,0.43959 0.30497,0.68507 0.13752,0.71635 -0.0807,1.48284 -0.29241,2.14907 -0.57081,1.79646 -1.42028,3.49923 -2.17702,5.21912 -0.82355,1.63338 -1.59586,3.47357 -2.82708,4.86243 -0.36207,0.40843 -0.99837,0.5805 -1.47714,0.78129 -1.15497,0.30385 -2.3254,0.36597 -3.51344,0.21899 -1.17843,-0.11646 -2.35676,-0.27813 -3.48629,-0.64921 -0.42488,-0.16777 -0.83648,-0.35293 -1.2452,-0.55745 -0.14654,-0.0733 -0.57804,-0.30863 -0.43707,-0.22507 3.94888,2.34072 3.69741,2.18989 2.4284,1.38634 -0.82509,-0.49723 -1.61965,-1.03234 -2.34323,-1.66936 -0.81516,-0.8844 -1.31844,-1.97151 -1.76762,-3.07744 -0.43736,-1.2847 -0.99665,-2.67813 -0.57673,-4.04071 0.0964,-0.20711 0.16415,-0.41718 0.34113,-0.57427 0.2615,-0.2321 0.47727,-0.066 0.42004,-0.10274 -1.97673,-1.27004 -4.35098,-2.57066 -2.95598,-1.80407 0.0329,0.0703 0.0995,0.13325 0.0986,0.21084 -0.009,0.80133 -1.20243,1.70678 -1.73131,2.17674 -0.91466,0.73343 -1.95242,1.26917 -2.96146,1.86007 -1.08488,0.65912 -2.15798,1.3335 -3.27421,1.93919 -1.25542,0.70577 -2.52486,1.38576 -3.78864,2.07493 z" />
    </g>
  </g>
</svg>
